<?xml version="1.0" standalone="no"?>
<!DOCTYPE svg PUBLIC "-//W3C//DTD SVG 1.1//EN" "http://www.w3.org/Graphics/SVG/1.1/DTD/svg11.dtd" >
<svg>
<metadata>
Created by FontForge 20090622 at Thu Dec 14 18:25:13 2017
 By deploy user
Copyright (c) 2014 by Jan Henrik Arnold. All rights reserved.
</metadata>
<defs>
<font id="TimesNow-Light" horiz-adv-x="500" >
  <font-face 
    font-family="JHA Times Now Light"
    font-weight="300"
    font-stretch="normal"
    units-per-em="1000"
    panose-1="2 0 3 3 7 4 5 6 4 3"
    ascent="725"
    descent="-275"
    x-height="447"
    cap-height="662"
    bbox="-160 -217 1009 878"
    underline-thickness="50"
    underline-position="-50"
    unicode-range="U+000D-U+FB02"
  />
<missing-glyph horiz-adv-x="433" 
d="M74 662h285l-143 -282zM385 49l-143 281l143 282v-563zM359 0h-285l142 282zM48 49v563l143 -282z" />
    <glyph glyph-name="fi" unicode="fi" horiz-adv-x="563" 
d="M189 447h234q11 0 19.5 1t10.5 1h12v-369q0 -42 16.5 -53.5t57.5 -13.5v-13h-202v13q38 1 54.5 13.5t16.5 53.5v277q0 41 -12.5 54.5t-49.5 13.5h-157v-299q0 -77 13.5 -94.5t69.5 -18.5v-13h-225v13q58 1 71.5 18.5t13.5 94.5v299h-87v22h87v46q0 83 54 142t141 59
q57 0 93 -24.5t36 -53.5q0 -14 -8.5 -22t-21.5 -8q-16 0 -30.5 12.5t-24.5 28t-28.5 28t-41.5 12.5q-52 0 -82 -40t-30 -108v-72z" />
    <glyph glyph-name="fl" unicode="fl" horiz-adv-x="565" 
d="M465 694v-616q0 -41 16 -53.5t57 -13.5v-11h-200v11q38 1 54 13t16 54v347h-220v-300q0 -77 13.5 -95t69.5 -19v-11h-225v11q58 1 71.5 19t13.5 95v300h-87v22h87q-1 128 39 187.5t125 59.5q51 0 96 -36l64 36h10zM408 447v140h-2q-6 -5 -16 -5q-16 0 -30.5 13.5
t-23.5 29.5t-26.5 29.5t-40.5 13.5q-42 0 -61.5 -29.5t-19.5 -100.5v-91h220z" />
    <glyph glyph-name=".notdef" horiz-adv-x="433" 
d="M74 662h285l-143 -282zM385 49l-143 281l143 282v-563zM359 0h-285l142 282zM48 49v563l143 -282z" />
    <glyph glyph-name=".null" horiz-adv-x="0" 
 />
    <glyph glyph-name=".null" horiz-adv-x="0" 
 />
    <glyph glyph-name="nonmarkingreturn" horiz-adv-x="333" 
 />
    <glyph glyph-name="CR" unicode="&#xd;" horiz-adv-x="250" 
 />
    <glyph glyph-name="space" unicode=" " horiz-adv-x="250" 
 />
    <glyph glyph-name="exclam" unicode="!" horiz-adv-x="333" 
d="M172 175h-12q-8 98 -20 271t-12 187q0 18 9.5 31t28.5 13t28.5 -13t9.5 -31q0 -14 -12 -187t-20 -271zM166 -14q-19 0 -32.5 13t-13.5 31q0 19 13.5 32t32.5 13q18 0 31.5 -13t13.5 -32q0 -18 -13 -31t-32 -13z" />
    <glyph glyph-name="quotedbl" unicode="&#x22;" horiz-adv-x="408" 
d="M121 392h-13q-29 219 -29 241q0 44 36 44q37 0 37 -44q0 -19 -31 -241zM301 392h-13q-29 208 -29 241q0 44 35 44q37 0 37 -44q0 -26 -30 -241z" />
    <glyph glyph-name="numbersign" unicode="#" 
d="M61 -15l47 230h-82v28h89l36 178h-127v28h132l47 228h29l-48 -228h179l47 228h28l-46 -228h82v-28h-88l-36 -178h124v-28h-130l-47 -230h-29l48 230h-179l-47 -230h-29zM143 243h179l36 178h-179z" />
    <glyph glyph-name="dollar" unicode="$" 
d="M252 651v-270q112 -74 150 -117t38 -101q0 -74 -56.5 -124.5t-131.5 -52.5v-62h-22v62q-94 3 -178 39v138h17q3 -68 44.5 -112t116.5 -43v296q-169 103 -169 208q0 69 49 112t120 49v45h22v-45q59 -1 165 -43v-146h-14q-12 153 -151 167zM252 292v-284q55 8 91 43t36 87
q0 42 -32 78.5t-95 75.5zM230 392v259q-54 -7 -82.5 -36t-28.5 -73q0 -82 111 -150z" />
    <glyph glyph-name="percent" unicode="%" horiz-adv-x="833" 
d="M175 676q57 0 93 -50t36 -129q0 -80 -38.5 -129.5t-90.5 -49.5q-54 0 -91.5 50t-37.5 129q0 74 37 126.5t92 52.5zM176 659q-34 0 -55 -39.5t-21 -123.5q0 -161 74 -161q76 0 76 163q0 80 -20.5 120.5t-53.5 40.5zM671 677l-473 -692h-29l473 692h29zM658 344
q57 0 93 -49.5t36 -129.5t-38.5 -129.5t-90.5 -49.5q-54 0 -91.5 50t-37.5 129q0 74 37.5 126.5t91.5 52.5zM659 327q-76 0 -76 -163q0 -161 74 -161q76 0 76 163q0 80 -20 120.5t-54 40.5z" />
    <glyph glyph-name="ampersand" unicode="&#x26;" horiz-adv-x="778" 
d="M735 130l12 -11q-13 -61 -52 -97.5t-99 -36.5q-66 0 -164 112q-121 -112 -225 -112q-64 0 -111.5 39.5t-47.5 107.5q0 133 205 243q-41 92 -41 144q0 69 44 113.5t110 44.5q55 0 91.5 -32.5t36.5 -87.5q0 -32 -15 -60t-45 -50.5t-52 -35t-58 -30.5q67 -133 137 -217
q98 118 98 190q0 24 -12.5 39.5t-34.5 16.5v13h199v-13q-40 -2 -62 -19t-49 -62q-69 -113 -125 -185q26 -30 43 -47t49 -35.5t62 -18.5q40 0 69 26t37 61zM314 403q59 26 97.5 66t38.5 91q0 42 -21.5 67.5t-59.5 25.5q-41 0 -69.5 -29t-28.5 -72q0 -65 43 -149zM415 114
q-61 71 -150 238q-57 -30 -101.5 -79t-44.5 -100q0 -61 36 -101t94 -40q73 0 166 82z" />
    <glyph glyph-name="quotesingle" unicode="'" horiz-adv-x="180" 
d="M96 392h-12q-29 208 -29 241q0 44 35 44q37 0 37 -44q0 -19 -31 -241z" />
    <glyph glyph-name="parenleft" unicode="(" horiz-adv-x="333" 
d="M311 694v-16q-101 -60 -147 -177t-46 -262q0 -144 51.5 -265.5t141.5 -175.5v-14q-123 66 -188 183t-65 272q0 153 66.5 268.5t186.5 186.5z" />
    <glyph glyph-name="parenright" unicode=")" horiz-adv-x="333" 
d="M26 -216v14q89 54 141 174t52 267q0 146 -46.5 263t-146.5 176v16q120 -71 186.5 -186.5t66.5 -268.5q0 -155 -65 -272t-188 -183z" />
    <glyph glyph-name="asterisk" unicode="*" 
d="M236 492q-24 14 -68.5 26t-69.5 25t-25 36q0 11 8.5 18t19.5 7q22 0 44 -17t49 -43t49 -39q0 41 -11 85t-11 66q0 17 7.5 28t21.5 11q30 0 30 -39q0 -24 -12 -67.5t-12 -83.5q24 11 73.5 55t71.5 44q11 0 19.5 -7.5t8.5 -18.5q0 -22 -28.5 -36t-73 -26.5t-63.5 -23.5
q25 -14 69.5 -26.5t68.5 -25.5t24 -36q0 -11 -8 -18.5t-19 -7.5q-22 0 -43 16t-48 43t-51 42q0 -42 11.5 -85.5t11.5 -65.5q0 -38 -30 -38q-29 0 -29 38q0 23 11 66t11 85q-30 -17 -56.5 -43.5t-44.5 -41.5t-41 -15q-11 0 -18.5 6.5t-7.5 18.5q0 23 23 36t68 25.5t70 26.5z
" />
    <glyph glyph-name="plus" unicode="+" horiz-adv-x="564" 
d="M268 69v251h-248v26h248v249h28v-249h249v-26h-249v-251h-28z" />
    <glyph glyph-name="comma" unicode="," horiz-adv-x="249" 
d="M59 -157v15q46 17 73 52t27 81q0 19 -14 19q-3 0 -14.5 -7t-22.5 -7q-17 0 -27 11.5t-10 29.5q0 20 14 32.5t33 12.5q30 0 47 -26.5t17 -58.5q0 -52 -35.5 -96t-87.5 -58z" />
    <glyph glyph-name="hyphen" unicode="-" horiz-adv-x="333" 
d="M40 253h253v-41h-253v41z" />
    <glyph glyph-name="period" unicode="." horiz-adv-x="250" 
d="M124 -15q-19 0 -32.5 14t-13.5 32t13.5 31.5t32.5 13.5q18 0 31.5 -13.5t13.5 -31.5t-13.5 -32t-31.5 -14z" />
    <glyph glyph-name="slash" unicode="/" horiz-adv-x="278" 
d="M275 694l-240 -709h-30l242 709h28z" />
    <glyph glyph-name="zero" unicode="0" 
d="M249 676q89 0 145 -94t56 -250q0 -160 -57.5 -253t-142.5 -93q-87 0 -144 89.5t-57 248.5q0 162 57 257t143 95zM250 657q-134 0 -134 -356q0 -146 37.5 -221t95.5 -75q134 0 134 359q0 141 -37 217t-96 76z" />
    <glyph glyph-name="one" unicode="1" 
d="M123 600l153 76h9v-578q0 -59 12.5 -71t70.5 -14v-13h-230v13q56 2 70.5 16.5t14.5 69.5v423q0 47 -9.5 64t-31.5 17q-24 0 -54 -14z" />
    <glyph glyph-name="two" unicode="2" 
d="M442 114l-40 -114h-375v18q200 196 264 281t64 161q0 72 -38.5 116.5t-102.5 44.5q-56 0 -99.5 -37.5t-58.5 -94.5h-15q13 82 61.5 134.5t126.5 52.5q74 0 123.5 -48.5t49.5 -125.5q0 -128 -135 -272l-159 -169h210q86 0 113 53h11z" />
    <glyph glyph-name="three" unicode="3" 
d="M164 329v13q65 10 114 52t49 102q0 62 -32 97t-87 35q-82 0 -137 -99l-13 7q23 63 69.5 101.5t111.5 38.5q73 0 109 -43t36 -93q0 -48 -28 -91.5t-71 -71.5q134 -46 134 -161q0 -95 -64 -162.5t-192 -67.5q-100 0 -100 48q0 14 11 22.5t27 8.5q22 0 56 -23.5t64 -23.5
q55 0 100.5 42.5t45.5 105.5q0 68 -50 115.5t-153 47.5z" />
    <glyph glyph-name="four" unicode="4" 
d="M465 236v-54h-97v-182h-63v182h-290v47l308 448h45v-441h97zM305 236v362h-2l-246 -362h248z" />
    <glyph glyph-name="five" unicode="5" 
d="M432 662l-27 -60h-206l-61 -124q115 -14 196 -78t81 -166q0 -104 -76 -176t-180 -72q-47 0 -76 16.5t-29 42.5q0 14 9.5 23t24.5 9q21 0 56.5 -24t69.5 -24q62 0 108 45t46 112q0 98 -79 161.5t-214 67.5l122 247h235z" />
    <glyph glyph-name="six" unicode="6" 
d="M448 676v-14q-112 -4 -196 -91t-112 -210q76 57 150 57q73 0 116 -57.5t43 -141.5q0 -91 -54 -162t-142 -71q-64 0 -109.5 43.5t-64.5 104t-19 127.5q0 106 47.5 201t133 154.5t186.5 59.5h21zM385 173q0 98 -37 152.5t-101 54.5q-41 0 -111 -45q-7 -48 -7 -102
q0 -91 36.5 -157.5t94.5 -66.5q57 0 91 49.5t34 114.5z" />
    <glyph glyph-name="seven" unicode="7" 
d="M100 662h355v-17l-220 -660h-32l203 617h-215q-50 0 -78.5 -18t-55.5 -65l-13 4z" />
    <glyph glyph-name="eight" unicode="8" 
d="M207 340l-25 21t-26 22.5l-22.5 21t-22 25l-15 25.5t-12 31t-3.5 34q0 71 48.5 113.5t117.5 42.5q82 0 127.5 -43.5t45.5 -100.5q0 -28 -12.5 -53.5t-37.5 -48t-44 -36.5t-48 -32q85 -68 110 -97q45 -52 45 -108q0 -78 -51.5 -124.5t-131.5 -46.5q-90 0 -135.5 47
t-45.5 115q0 92 138 192zM262 374q30 26 40.5 36t30.5 33.5t27.5 46t7.5 49.5q0 52 -33 83.5t-87 31.5q-50 0 -84 -29.5t-34 -71.5q0 -28 16 -57t29.5 -43.5t47 -44zM222 327q-39 -30 -67.5 -79t-28.5 -94q0 -65 34 -105.5t98 -40.5q54 0 89.5 30.5t35.5 77.5q0 45 -34 89
t-127 122z" />
    <glyph glyph-name="nine" unicode="9" 
d="M53 -14v14q111 0 192.5 87.5t110.5 205.5q-76 -49 -144 -49q-73 0 -116.5 57t-43.5 138q0 93 52.5 165t141.5 72q91 0 143 -82.5t52 -194.5q0 -71 -26 -143.5t-72 -133t-118 -98.5t-156 -38h-16zM363 323q9 59 9 103q0 85 -37 155.5t-97 70.5t-91 -52.5t-31 -112.5
q0 -100 34.5 -153t96.5 -53q26 0 60 12.5t56 29.5z" />
    <glyph glyph-name="colon" unicode=":" horiz-adv-x="278" 
d="M140 362q-19 0 -32.5 14t-13.5 32q0 19 13.5 32t32.5 13q18 0 31 -13.5t13 -31.5t-13 -32t-31 -14zM139 -9q-19 0 -32.5 14t-13.5 32q0 19 13.5 32t32.5 13q18 0 31 -13t13 -32q0 -18 -13 -32t-31 -14z" />
    <glyph glyph-name="semicolon" unicode=";" horiz-adv-x="278" 
d="M140 363q-18 0 -32 14t-14 33q0 18 13.5 31t31.5 13q19 0 32.5 -13t13.5 -31q0 -19 -13 -33t-32 -14zM71 -157v15q46 17 73 52t27 81q0 19 -13 19q-4 0 -15.5 -7t-22.5 -7q-17 0 -27 11.5t-10 29.5q0 20 14 32.5t33 12.5q30 0 47 -26.5t17 -58.5q0 -52 -35.5 -96
t-87.5 -58z" />
    <glyph glyph-name="less" unicode="&#x3c;" horiz-adv-x="564" 
d="M20 344l525 229v-29l-483 -212l483 -212v-29l-525 229v24z" />
    <glyph glyph-name="equal" unicode="=" horiz-adv-x="564" 
d="M20 425h525v-28h-525v28zM20 267h525v-28h-525v28z" />
    <glyph glyph-name="greater" unicode="&#x3e;" horiz-adv-x="564" 
d="M545 320l-525 -229v29l482 212l-482 211v30l525 -229v-24z" />
    <glyph glyph-name="question" unicode="?" horiz-adv-x="444" 
d="M216 156h-13q0 54 18.5 106t41 86.5t41 79t18.5 85.5q0 64 -33 104t-84 40q-49 0 -77.5 -21t-28.5 -49q0 -18 15 -45t15 -40q0 -17 -9 -26.5t-23 -9.5q-21 0 -34.5 20t-13.5 50q0 57 43 99t130 42q48 0 83.5 -15.5t52.5 -40.5t24.5 -49.5t7.5 -49.5q0 -41 -18 -78.5
t-43.5 -68l-51 -61.5t-43.5 -72t-18 -86zM209 -15q-19 0 -32.5 14t-13.5 32t13.5 31.5t32.5 13.5t32 -13.5t13 -31.5t-13 -32t-32 -14z" />
    <glyph glyph-name="at" unicode="@" horiz-adv-x="921" 
d="M677 466l-83 -287q-19 -64 -19 -91q0 -44 47 -44q78 0 146.5 94.5t68.5 226.5q0 137 -91 223.5t-230 86.5q-123 0 -224.5 -68.5t-156.5 -176t-55 -227.5q0 -168 113 -282t282 -114q147 0 252.5 77.5t148.5 199.5h22q-41 -134 -159.5 -217t-261.5 -83q-185 0 -306.5 123
t-121.5 308q0 129 59 238.5t165.5 175t236.5 65.5q154 0 252 -91t98 -244q0 -57 -17.5 -116.5t-50 -111t-85.5 -84t-116 -32.5q-70 0 -70 67q0 29 8 67l-2 2q-37 -52 -88 -94t-100 -42q-40 0 -61.5 32t-21.5 79q0 76 41 157.5t102.5 134t118.5 52.5q31 0 54.5 -18t27.5 -48
h2l16 54zM584 377q0 33 -17.5 53.5t-45.5 20.5q-43 0 -92 -56.5t-80.5 -129t-31.5 -121.5q0 -82 59 -82q40 0 89 46.5t84 121.5t35 147z" />
    <glyph glyph-name="A" unicode="A" horiz-adv-x="719" 
d="M476 227h-274l-40 -101q-22 -52 -22 -72q0 -16 10.5 -25t24 -11.5t39.5 -4.5v-13h-193v13q38 4 59 26t44 77l226 561h8l221 -540q29 -73 46 -91q25 -29 72 -33v-13h-229v13q38 2 54 11t16 34q0 17 -26 81zM466 251l-129 319l-125 -319h254z" />
    <glyph glyph-name="B" unicode="B" horiz-adv-x="645" 
d="M123 122v434q0 59 -18.5 75.5t-75.5 17.5v13h291q118 0 181.5 -47t63.5 -128q0 -53 -35 -92t-89 -55v-2q62 -9 108 -51t46 -103q0 -83 -63.5 -133.5t-178.5 -50.5h-324v13q62 1 78 20.5t16 88.5zM185 624v-265q35 -7 129 -7q82 0 127.5 38t45.5 99q0 70 -53.5 108
t-143.5 38q-65 0 -105 -11zM185 323v-282q53 -13 132 -13q82 0 138.5 38t56.5 107q0 43 -21 74.5t-55.5 48.5t-71.5 24.5t-76 7.5q-75 0 -103 -5z" />
    <glyph glyph-name="C" unicode="C" horiz-adv-x="667" 
d="M597 677l16 -225h-11q-21 91 -77.5 145t-144.5 54q-109 0 -177.5 -88.5t-68.5 -243.5q0 -76 22.5 -135.5t60 -94t82 -52t93.5 -17.5q76 0 128.5 35.5t101.5 106.5l10 -7q-47 -86 -112.5 -128t-161.5 -42q-137 0 -222 95t-85 238q0 151 91 254.5t236 103.5q41 0 78 -12
t60.5 -23.5t32.5 -11.5q34 0 36 48h12z" />
    <glyph glyph-name="D" unicode="D" horiz-adv-x="720" 
d="M128 122v434q0 56 -19 74t-75 19v13h256q182 0 279.5 -82t97.5 -246q0 -143 -90.5 -238.5t-250.5 -95.5h-292v13q60 1 77 21t17 88zM190 622v-582q57 -13 120 -13q126 0 200.5 83t74.5 221q0 149 -77 227.5t-203 78.5q-60 0 -115 -15z" />
    <glyph glyph-name="E" unicode="E" horiz-adv-x="610" 
d="M190 636v-277h149q64 0 88 16.5t28 80.5h13v-221h-13q-6 64 -29 81t-87 17h-149v-239q0 -38 14 -53t55 -15h137q61 0 94.5 29t77.5 104h13l-56 -159h-491v13q60 0 77 20t17 89v434q0 57 -18.5 75t-75.5 18v13h485l9 -142h-13q-14 74 -40.5 95t-99.5 21h-185z" />
    <glyph glyph-name="F" unicode="F" horiz-adv-x="555" 
d="M189 636v-278h124q58 0 78.5 17.5t21.5 72.5h13v-205h-13q-1 55 -22 73t-78 18h-124v-212q0 -71 14 -89.5t80 -19.5v-13h-250v13q64 1 79 21t15 88v412q0 72 -14.5 93t-79.5 22v13h469l7 -144h-9q-21 73 -52 95.5t-108 22.5h-151z" />
    <glyph glyph-name="G" unicode="G" horiz-adv-x="720" 
d="M619 250v-209q-104 -56 -213 -56q-165 0 -260.5 97.5t-95.5 237.5q0 64 22 126t62.5 114.5t106.5 84.5t146 32q61 0 119 -21t66 -21q22 0 25 42h13l17 -208h-14q-55 182 -221 182q-115 0 -187.5 -85t-72.5 -224q0 -144 77.5 -239.5t196.5 -95.5q86 0 151 42v185
q0 69 -15 88.5t-79 20.5v13h231v-13q-47 -1 -61 -20t-14 -73z" />
    <glyph glyph-name="H" unicode="H" horiz-adv-x="720" 
d="M189 350h342v202q0 62 -18 79t-76 18v13h250v-13q-58 -1 -76 -19t-18 -78v-439q0 -66 16 -82.5t78 -17.5v-13h-250v13q58 1 76 19.5t18 80.5v211h-342v-214q0 -65 16 -80.5t78 -16.5v-13h-250v13q58 1 76 19t18 78v442q0 61 -17.5 79t-76.5 18v13h250v-13q-58 0 -76 -19
t-18 -78v-202z" />
    <glyph glyph-name="I" unicode="I" horiz-adv-x="325" 
d="M194 555v-446q0 -63 16 -79t78 -17v-13h-250v13q57 1 75.5 19.5t18.5 76.5v446q0 57 -17.5 75t-76.5 19v13h250v-13q-56 -1 -75 -18.5t-19 -75.5z" />
    <glyph glyph-name="J" unicode="J" horiz-adv-x="387" 
d="M211 103v452q0 59 -18 76t-76 18v13h250v-13q-57 -1 -75.5 -19t-18.5 -75v-351q0 -219 -147 -219q-39 0 -67 23t-28 52q0 16 10.5 26.5t25.5 10.5q18 0 31 -12.5t19.5 -28t18 -28t26.5 -12.5q49 0 49 87z" />
    <glyph glyph-name="K" unicode="K" horiz-adv-x="715" 
d="M252 359l250 -234q37 -34 59.5 -52.5t62 -38.5t76.5 -21v-13h-280v13q53 0 53 31q0 24 -45 65l-238 222v-216q0 -66 14 -83.5t80 -18.5v-13h-250v13q63 1 78.5 19.5t15.5 82.5v440q0 57 -17.5 75t-76.5 19v13h250v-13q-57 -1 -75.5 -19t-18.5 -75v-213l177 158
q101 89 101 120q0 18 -14 23.5t-47 5.5v13h219v-13q-38 -2 -70 -23t-98 -80z" />
    <glyph glyph-name="L" unicode="L" horiz-adv-x="610" 
d="M190 553v-436q0 -54 9.5 -70t34.5 -16h171q60 0 99 35.5t71 116.5l12 -3l-57 -180h-496v13q58 1 76 19.5t18 82.5v440q0 58 -18.5 75.5t-75.5 18.5v13h267v-13q-70 0 -90.5 -17t-20.5 -79z" />
    <glyph glyph-name="M" unicode="M" horiz-adv-x="888" 
d="M411 0l-259 566h-2v-447q0 -69 15.5 -87t78.5 -19v-13h-219v13q60 2 77 20.5t17 85.5v421q0 63 -17 86t-77 23v13h153l254 -563l259 563h163v-13q-59 -1 -76.5 -21t-17.5 -87v-421q0 -70 16.5 -88t77.5 -19v-13h-250v13q59 1 76.5 20.5t17.5 87.5v477h-2l-278 -598h-7z
" />
    <glyph glyph-name="N" unicode="N" horiz-adv-x="720" 
d="M150 532v-412q0 -70 15.5 -88t78.5 -19v-13h-217v13q60 1 77 19t17 88v450q-22 28 -36.5 42t-39.5 25.5t-57 11.5v13h141l450 -552h2v428q0 71 -17 90.5t-77 20.5v13h217v-13q-58 -1 -76 -21t-18 -90v-549h-14l-444 543h-2z" />
    <glyph glyph-name="O" unicode="O" horiz-adv-x="722" 
d="M361 -15q-136 0 -224.5 101.5t-88.5 244.5q0 142 88.5 244t224.5 102q137 0 224 -100t87 -246q0 -143 -87.5 -244.5t-223.5 -101.5zM361 9q111 0 169.5 91.5t58.5 230.5q0 140 -57.5 231t-170.5 91q-115 0 -172.5 -92t-57.5 -230q0 -139 59.5 -230.5t170.5 -91.5z" />
    <glyph glyph-name="P" unicode="P" horiz-adv-x="555" 
d="M191 317v-206q0 -64 16 -80.5t78 -17.5v-13h-250v13q57 1 75.5 20t18.5 78v444q0 59 -18 76t-76 18v13h253q103 0 161 -49.5t58 -135.5q0 -77 -53.5 -128t-138.5 -51q-36 0 -124 19zM191 624v-285q70 -15 112 -15q54 0 89.5 41.5t35.5 106.5q0 76 -41 118.5t-111 42.5
q-48 0 -85 -9z" />
    <glyph glyph-name="Q" unicode="Q" horiz-adv-x="722" 
d="M681 -182v-12q-207 9 -382 184q-110 25 -180.5 119t-70.5 222q0 141 88 243.5t225 102.5q136 0 223.5 -101t87.5 -245q0 -128 -72 -225t-181 -116q38 -71 109 -119.5t153 -52.5zM361 9q101 0 164.5 83.5t63.5 238.5q0 149 -60.5 236t-167.5 87q-108 0 -169 -87t-61 -236
q0 -152 63.5 -237t166.5 -85z" />
    <glyph glyph-name="R" unicode="R" horiz-adv-x="662" 
d="M660 0h-151l-224 313h-94v-193q0 -37 1.5 -52.5t11 -30.5t28 -19.5t53.5 -4.5v-13h-250v13q63 1 78.5 21t15.5 86v422q0 68 -15 87t-79 20v13h255q58 0 102 -13.5t67 -32.5t37.5 -44.5t18.5 -44.5t4 -37q0 -67 -46.5 -110t-117.5 -57l130 -182l30.5 -42.5t27 -32
t33 -28.5t35.5 -15t49 -10v-13zM191 630v-292h22q227 0 227 148q0 70 -42.5 111.5t-114.5 41.5q-51 0 -92 -9z" />
    <glyph glyph-name="S" unicode="S" horiz-adv-x="561" 
d="M455 677v-229h-10q-6 83 -56 144t-129 61q-54 0 -93.5 -34t-39.5 -82q0 -47 38 -84t92.5 -63.5l109.5 -54t93 -69t38 -94.5q0 -81 -54.5 -134t-145.5 -53q-55 0 -105 18.5t-71 18.5q-17 0 -22.5 -9.5t-7.5 -27.5h-13v227h13q5 -58 28.5 -100.5t56 -62.5t60.5 -29t52 -9
q65 0 106 32t41 91q0 42 -26.5 75.5t-67 54l-87 45t-87 48t-67 62t-26.5 87.5q0 75 55.5 123t133.5 48q42 0 89.5 -19t57.5 -19q26 0 34 38h10z" />
    <glyph glyph-name="T" unicode="T" horiz-adv-x="610" 
d="M336 634v-516q0 -73 14 -88.5t80 -16.5v-13h-250v13q63 2 78.5 19t15.5 86v516h-136q-54 0 -73.5 -32t-23.5 -94h-12l6 154h539l7 -154h-12q-5 63 -25 94.5t-73 31.5h-135z" />
    <glyph glyph-name="U" unicode="U" horiz-adv-x="719" 
d="M117 237v319q0 56 -17.5 74t-76.5 19v13h250v-13q-57 -1 -75.5 -19t-18.5 -74v-285q0 -136 42 -196.5t143 -60.5q109 0 161.5 64t52.5 195v267q0 69 -14.5 88.5t-79.5 20.5v13h217v-13q-65 0 -79.5 -19.5t-14.5 -89.5v-300q0 -115 -59.5 -185t-187.5 -70q-243 0 -243 252
z" />
    <glyph glyph-name="V" unicode="V" horiz-adv-x="723" 
d="M391 89l164 425q27 69 27 91q0 44 -69 44v13h188v-13q-45 -4 -62 -23t-42 -82l-217 -559h-9l-239 564q-25 61 -44 78.5t-66 21.5v13h240v-13q-40 -2 -58.5 -12t-18.5 -33q0 -19 27 -85z" />
    <glyph glyph-name="W" unicode="W" horiz-adv-x="941" 
d="M651 109l131 405q22 63 22 88t-15 35.5t-57 11.5v13h186v-13q-41 -1 -59.5 -23.5t-38.5 -82.5l-179 -558h-12l-155 439h-2l-144 -439h-13l-200 576q-18 52 -33.5 69.5t-58.5 18.5v13h214v-13q-34 -1 -51 -10t-17 -30q0 -17 15 -59l151 -442h2l121 365l-26 75
q-22 65 -41.5 82.5t-60.5 18.5v13h228v-13q-40 -1 -57 -9.5t-17 -33.5q0 -17 25 -97l140 -400h2z" />
    <glyph glyph-name="X" unicode="X" horiz-adv-x="719" 
d="M360 310l-146 -190q-35 -44 -35 -68q0 -21 14.5 -29t49.5 -10v-13h-223v13q48 4 81 29.5t84 90.5l158 202l-118 178q-48 73 -85.5 103t-103.5 33v13h284v-13q-73 -2 -73 -40q0 -17 27 -58l110 -167l123 159q36 43 36 68q0 37 -69 38v13h219v-13q-48 -1 -81 -28t-79 -89
l-133 -172l172 -259q35 -52 60 -69t65 -19v-13h-249v13q40 1 54.5 9.5t14.5 25.5q0 25 -36 80z" />
    <glyph glyph-name="Y" unicode="Y" horiz-adv-x="720" 
d="M376 306l138 217q34 53 34 80q0 46 -69 46v13h219v-13q-44 -1 -75 -26t-59 -70l-173 -273v-170q0 -63 15.5 -79.5t78.5 -17.5v-13h-250v13q55 1 74.5 19t19.5 78v162l-209 321q-36 56 -95 56v13h254v-13q-38 0 -58 -8.5t-20 -33.5q0 -19 21 -52z" />
    <glyph glyph-name="Z" unicode="Z" horiz-adv-x="609" 
d="M110 29h287q66 0 96.5 32.5t59.5 113.5h12l-31 -175h-510v18l438 613h-215q-79 0 -111 -27.5t-43 -107.5h-12l14 166h465z" />
    <glyph glyph-name="bracketleft" unicode="[" horiz-adv-x="333" 
d="M288 -198h-195v875h195v-30h-144v-817h144v-28z" />
    <glyph glyph-name="backslash" unicode="\" horiz-adv-x="278" 
d="M34 694l239 -709h-30l-239 709h30z" />
    <glyph glyph-name="bracketright" unicode="]" horiz-adv-x="333" 
d="M45 677h195v-875h-195v29h144v815h-144v31z" />
    <glyph glyph-name="asciicircum" unicode="^" horiz-adv-x="469" 
d="M244 676l207 -352h-35l-182 307l-181 -307h-35l208 352h18z" />
    <glyph glyph-name="underscore" unicode="_" 
d="M508 -116h-516v29h516v-29z" />
    <glyph glyph-name="grave" unicode="`" horiz-adv-x="333" 
d="M74 715h79l62 -169h-11z" />
    <glyph glyph-name="a" unicode="a" horiz-adv-x="443" 
d="M352 339v-244q0 -36 6 -48.5t19 -12.5q21 0 58 39v-20q-18 -26 -45.5 -46.5t-46.5 -20.5q-21 0 -34.5 20.5t-13.5 56.5q-54 -44 -84.5 -60.5t-64.5 -16.5q-44 0 -72 30.5t-28 82.5q0 58 57 100.5t192 91.5q0 28 -0.5 42.5t-5 38t-13.5 36t-26.5 22t-43.5 9.5
q-37 0 -57.5 -18t-20.5 -49q0 -66 -37 -66q-15 0 -23.5 11t-8.5 28q0 43 44.5 79.5t116.5 36.5q61 0 96.5 -33t35.5 -89zM295 89v179q-101 -37 -145.5 -73t-44.5 -78q0 -41 20.5 -63.5t50.5 -22.5q25 0 48.5 12t70.5 46z" />
    <glyph glyph-name="b" unicode="b" 
d="M143 694v-326h2q27 41 66.5 67t84.5 26q62 0 112 -56.5t50 -161.5q0 -62 -21 -113t-54 -81.5t-71 -46.5t-75 -16q-71 0 -151 57v547q0 30 -8 40t-27 10q-15 0 -43 -11l-5 12l129 53h11zM143 337v-275q51 -51 109 -51q61 0 102 52t41 152q0 95 -37 144t-97 49
q-29 0 -61 -20.5t-57 -50.5z" />
    <glyph glyph-name="c" unicode="c" horiz-adv-x="443" 
d="M391 179l12 -5q-10 -81 -57 -134.5t-121 -53.5q-79 0 -129.5 65.5t-50.5 175.5q0 106 57.5 170t144.5 64q56 0 99.5 -31.5t43.5 -72.5q0 -37 -38 -37q-37 0 -43 49q-7 66 -75 66q-62 0 -101.5 -49t-39.5 -125q0 -100 45 -161.5t110 -61.5q54 0 90.5 38t52.5 103z" />
    <glyph glyph-name="d" unicode="d" horiz-adv-x="493" 
d="M357 413v162q0 39 -8 52t-29 13q-14 0 -37 -9l-5 12l124 51h12v-602q0 -31 7.5 -41t29.5 -10q19 0 34 6l5 -11l-123 -50h-10v73q-75 -73 -146 -73q-70 0 -118.5 62.5t-48.5 158.5q0 100 55.5 177t145.5 77q72 0 112 -48zM357 87v224q0 55 -33 90t-85 35q-58 0 -94.5 -50
t-36.5 -144q0 -92 39.5 -151.5t98.5 -59.5q50 0 111 56z" />
    <glyph glyph-name="e" unicode="e" horiz-adv-x="452" 
d="M412 278h-319q0 -115 44 -176t114 -61q110 0 147 131l11 -6q-13 -76 -60 -128t-116 -52q-84 0 -137.5 65t-53.5 167q0 112 54.5 177.5t145.5 65.5q76 0 123 -51t47 -132zM94 303h242q1 61 -31 96.5t-84 35.5q-47 0 -85 -37.5t-42 -94.5z" />
    <glyph glyph-name="f" unicode="f" horiz-adv-x="331" 
d="M195 425v-299q0 -42 2 -62.5t12.5 -33t24.5 -15t44 -2.5v-13h-225v13q59 1 72 18.5t13 94.5v299h-87v22h87v57q0 86 45 138t115 52q46 0 87.5 -23.5t41.5 -58.5q0 -28 -30 -28q-15 0 -28.5 13.5t-22 29.5t-27 29.5t-42.5 13.5q-82 0 -82 -127v-96h115v-22h-115z" />
    <glyph glyph-name="g" unicode="g" 
d="M39 -116q0 23 25.5 60.5t62.5 70.5q-24 10 -36 19.5t-12 24.5q0 20 13.5 42t24.5 32.5l34 31.5q-75 40 -75 133q0 69 46 116t123 47q53 0 104 -37h110q12 0 16 -3t4 -13q0 -11 -3.5 -14t-17.5 -3h-80q11 -16 19 -45t8 -50q0 -61 -43.5 -106.5t-124.5 -45.5q-40 0 -65 11
q-41 -36 -41 -64q0 -20 36 -28t148 -9q83 -1 119 -26t36 -77q0 -60 -69.5 -113.5t-175.5 -53.5q-68 0 -127 28.5t-59 71.5zM232 443q-40 0 -67.5 -34t-27.5 -89q0 -77 30.5 -117.5t79.5 -40.5q43 0 69.5 30.5t26.5 93.5q0 76 -29.5 116.5t-81.5 40.5zM150 8q-65 -58 -65 -98
q0 -35 49 -61t122 -26q80 0 134.5 35.5t54.5 81.5q0 32 -29.5 46t-101.5 14q-132 0 -164 8z" />
    <glyph glyph-name="h" unicode="h" horiz-adv-x="496" 
d="M412 326v-246q0 -39 14.5 -52.5t57.5 -14.5v-13h-201v13q41 1 56.5 14t15.5 53v228q0 110 -73 110q-59 0 -133 -79v-259q0 -40 14.5 -53t57.5 -14v-13h-202v13q44 1 58.5 14t14.5 53v511q0 27 -7.5 38.5t-25.5 11.5q-20 0 -40 -9l-5 11l124 51h11v-329q88 96 163 96
q47 0 73.5 -33.5t26.5 -101.5z" />
    <glyph glyph-name="i" unicode="i" horiz-adv-x="278" 
d="M173 461v-381q0 -39 15 -52.5t59 -14.5v-13h-203v13q42 1 57 14.5t15 52.5v276q0 28 -8 39.5t-27 11.5q-15 0 -41 -11l-4 12l126 53h11zM98 641q0 16 12 28t28 12t28 -11.5t12 -28.5t-12 -29t-28 -12t-28 12t-12 29z" />
    <glyph glyph-name="j" unicode="j" horiz-adv-x="267" 
d="M173 461v-472q0 -105 -43.5 -155t-112.5 -50q-39 0 -58.5 12.5t-19.5 30.5q0 12 9.5 20.5t23.5 8.5q20 0 49.5 -21t50.5 -21q19 0 31.5 20.5t12.5 60.5v463q0 29 -8.5 39.5t-26.5 10.5q-13 0 -46 -13l-5 12l131 54h12zM97 641q0 17 12 28.5t29 11.5t28.5 -11.5
t11.5 -28.5t-11.5 -29t-28.5 -12t-29 12t-12 29z" />
    <glyph glyph-name="k" unicode="k" horiz-adv-x="493" 
d="M303 62l-152 187l132 124q30 28 30 41q0 19 -34 20v13h179v-13q-43 0 -72.5 -12t-61.5 -43l-113 -108l141 -176q66 -82 128 -82v-13h-194v13q31 0 31 19q0 14 -14 30zM150 694v-614q0 -37 15.5 -52t53.5 -15v-13h-195v13q38 0 53.5 14t15.5 53v511q0 49 -37 49
q-17 0 -37 -9l-5 11l125 52h11z" />
    <glyph glyph-name="l" unicode="l" horiz-adv-x="256" 
d="M149 694v-614q0 -42 17.5 -54t56.5 -13v-13h-201v13q38 1 54 13t16 54v507q0 29 -9 41t-28 12q-15 0 -37 -9l-4 11l125 52h10z" />
    <glyph glyph-name="m" unicode="m" horiz-adv-x="761" 
d="M149 461v-95q28 29 48 46t53 33t66 16q38 0 64.5 -26.5t32.5 -72.5q29 32 47.5 49.5t49 33.5t62.5 16q108 0 108 -137v-244q0 -42 15.5 -54t53.5 -13v-13h-197v13q41 1 56 13.5t15 53.5v217q0 70 -17.5 95.5t-57.5 25.5q-55 0 -134 -77v-261q0 -41 14.5 -53t55.5 -14v-13
h-198v13q40 2 55.5 13.5t15.5 53.5v230q0 57 -18.5 82.5t-56.5 25.5q-54 0 -133 -77v-261q0 -42 13.5 -54t56.5 -13v-13h-198v13q42 1 56.5 13.5t14.5 53.5v260q0 40 -8.5 53.5t-28.5 13.5q-13 0 -38 -10l-5 11l126 53h11z" />
    <glyph glyph-name="n" unicode="n" horiz-adv-x="498" 
d="M149 461v-97q89 97 163 97q101 0 101 -135v-246q0 -41 14 -53.5t59 -13.5v-13h-203v13q44 1 58.5 14t14.5 53v228q0 110 -74 110q-59 0 -133 -79v-259q0 -42 13.5 -54t58.5 -13v-13h-202v13q44 1 58.5 14t14.5 53v261q0 38 -8.5 52t-28.5 14q-13 0 -38 -10l-5 11l127 53
h10z" />
    <glyph glyph-name="o" unicode="o" horiz-adv-x="496" 
d="M248 461q80 0 142 -65.5t62 -161.5q0 -62 -21 -116.5t-69 -93t-115 -38.5q-79 0 -141 69t-62 163q0 103 59 173t145 70zM238 436q-55 0 -92 -49t-37 -129q0 -107 43.5 -177.5t112.5 -70.5q35 0 60 18t38 47t18.5 58t5.5 58q0 120 -42 182.5t-107 62.5z" />
    <glyph glyph-name="p" unicode="p" horiz-adv-x="490" 
d="M84 -133v483q0 33 -8.5 45t-27.5 12q-12 0 -35 -9l-5 12l122 51h11v-91h2q26 41 66 66t81 25q64 0 111 -59t47 -166q0 -110 -57 -180t-137 -70q-33 0 -64.5 16t-48.5 42v-177q0 -42 15 -54t62 -13v-13h-211v13q47 1 62 13t15 54zM141 336v-211q0 -49 32.5 -82t82.5 -33
q58 0 98 54t40 142q0 98 -37.5 151t-95.5 53q-70 0 -120 -74z" />
    <glyph glyph-name="q" unicode="q" horiz-adv-x="499" 
d="M421 461v-594q0 -43 13 -54t64 -13v-13h-211v13q51 2 64 13t13 54v213q-32 -42 -73.5 -68t-84.5 -26q-64 0 -111.5 61t-47.5 153q0 113 58 187t159 74q60 0 103 -40l43 40h11zM364 112v216q0 52 -30 80.5t-80 28.5q-68 0 -109.5 -55t-41.5 -151t43.5 -145t94.5 -49
q32 0 65.5 22.5t57.5 52.5z" />
    <glyph glyph-name="r" unicode="r" horiz-adv-x="330" 
d="M149 461v-98q8 13 22.5 32.5t45.5 42.5t60 23q22 0 35.5 -11.5t13.5 -31.5q0 -15 -12 -25.5t-30 -10.5q-14 0 -31 9.5t-30 9.5q-18 0 -38.5 -25t-36.5 -55v-243q0 -40 15 -52t68 -13v-13h-209v13q42 2 55.5 14.5t13.5 52.5v260q0 39 -8.5 53t-28.5 14q-13 0 -38 -10
l-5 11l127 53h11z" />
    <glyph glyph-name="s" unicode="s" horiz-adv-x="389" 
d="M318 461v-153h-13q-3 57 -34 94t-86 37q-32 0 -58.5 -20t-26.5 -53q0 -34 25.5 -58.5t62 -40.5l73 -33.5t62 -48.5t25.5 -74q0 -58 -43.5 -91.5t-101.5 -33.5q-37 0 -71.5 10t-43.5 10q-15 0 -18 -13h-13v160h13q4 -62 39.5 -103.5t97.5 -41.5q37 0 62 20.5t25 57.5
t-24.5 63t-59.5 42.5l-70 33.5t-59.5 44.5t-24.5 65.5q0 57 38.5 91.5t95.5 34.5q21 0 51.5 -9.5t42.5 -9.5q14 0 21 19h13z" />
    <glyph glyph-name="t" unicode="t" horiz-adv-x="275" 
d="M147 447h105v-22h-105v-304q0 -47 10 -65t38 -18q17 0 34 14.5t24 37.5h13q-12 -44 -37.5 -70t-61.5 -26q-77 0 -77 107v324h-77v13q53 14 80 46t43 100h11v-137z" />
    <glyph glyph-name="u" unicode="u" horiz-adv-x="487" 
d="M396 447v-347q0 -33 6.5 -46t29.5 -13q16 0 36 8l5 -12l-124 -51h-10v94q-87 -94 -163 -94q-49 0 -75.5 35t-26.5 96v239q0 48 -12.5 62.5t-61.5 15.5v13h131v-324q0 -97 76 -97q29 0 67 24.5t65 53.5v252q0 48 -12.5 62.5t-61.5 15.5v13h131z" />
    <glyph glyph-name="v" unicode="v" horiz-adv-x="498" 
d="M274 83l112 270q15 36 15 55q0 14 -10.5 19.5t-37.5 6.5v13h133v-13q-20 0 -34.5 -12t-20.5 -24t-16 -35l-154 -377h-11l-162 393q-13 30 -28 41.5t-45 13.5v13h185v-13q-27 0 -39.5 -6t-12.5 -25q0 -13 15 -51z" />
    <glyph glyph-name="w" unicode="w" horiz-adv-x="718" 
d="M510 92l97 259q13 34 13 50q0 31 -52 33v13h137v-13q-40 -3 -67 -71l-142 -377h-7l-114 301l-136 -301h-9l-139 364q-17 46 -30.5 62t-46.5 22v13h176v-13q-17 0 -32 -9t-15 -28q0 -17 12 -45l101 -271l106 236l-19 52q-14 36 -29 50.5t-45 14.5v13h193v-13
q-13 0 -25 -2.5t-23.5 -12t-11.5 -25.5q0 -12 8 -34z" />
    <glyph glyph-name="x" unicode="x" horiz-adv-x="498" 
d="M212 232l-74 111q-36 53 -56 71.5t-55 19.5v13h182v-13q-37 0 -37 -26q0 -20 46 -84l30 -45l31 44q51 70 51 87q0 24 -36 24v13h139v-13q-20 0 -38 -12.5t-28 -25t-35 -46.5l-69 -92l100 -146q45 -64 63.5 -81t47.5 -18v-13h-183v13q44 0 44 23t-39 76l-69 100l-74 -100
q-40 -51 -40 -72q0 -14 14.5 -20.5t29.5 -6.5v-13h-138v13q6 0 11 2t11 6t10.5 7.5t11 10.5l11 11.5t11.5 14t11 14.5t12.5 16.5t12.5 16.5z" />
    <glyph glyph-name="y" unicode="y" horiz-adv-x="497" 
d="M252 23l-167 356q-14 30 -28 41t-43 14v13h189v-13q-32 0 -44 -7.5t-12 -25.5q0 -11 23 -64l112 -237l105 256q13 30 13 51q0 26 -44 27v13h133v-13q-40 0 -62 -52l-197 -477q-26 -63 -62 -92t-68 -29q-27 0 -42.5 11.5t-15.5 30.5q0 17 12 28t30 11q14 0 33 -8t28 -8
q21 0 37 22t40 79z" />
    <glyph glyph-name="z" unicode="z" horiz-adv-x="442" 
d="M405 131l-7 -131h-370v13l307 409h-145q-67 0 -87 -14t-26 -78h-13v117h349v-12l-304 -409h161q72 0 93.5 17t28.5 88h13z" />
    <glyph glyph-name="braceleft" unicode="{" horiz-adv-x="480" 
d="M104 232v14q47 6 83 35t36 74q0 25 -10.5 75t-10.5 77q0 72 52 129t122 58v-12q-48 -5 -84.5 -43t-36.5 -85q0 -25 10.5 -73.5t10.5 -75.5q0 -128 -136 -165v-2q133 -36 133 -165q0 -24 -10.5 -73t-10.5 -76q0 -47 38 -85.5t86 -43.5v-11q-70 1 -121.5 58t-51.5 129
q0 24 10.5 74.5t10.5 77.5q0 45 -36.5 74t-83.5 35z" />
    <glyph glyph-name="bar" unicode="|" horiz-adv-x="200" 
d="M115 694v-910h-29v910h29z" />
    <glyph glyph-name="braceright" unicode="}" horiz-adv-x="480" 
d="M378 246v-14q-47 -6 -83.5 -35t-36.5 -74q0 -25 10.5 -75t10.5 -77q0 -72 -51.5 -129t-121.5 -58v11q48 5 86 43.5t38 85.5q0 25 -10.5 73.5t-10.5 75.5q0 129 134 165v2q-136 37 -136 165q0 24 10.5 73t10.5 76q0 47 -37 85t-85 43v12q70 -1 122.5 -58t52.5 -129
q0 -25 -10.5 -75t-10.5 -77q0 -45 35.5 -74t82.5 -35z" />
    <glyph glyph-name="asciitilde" unicode="~" horiz-adv-x="541" 
d="M498 411h18q-1 -62 -37.5 -105.5t-97.5 -43.5q-46 0 -128 46t-117 46q-38 0 -63.5 -30.5t-29.5 -70.5h-18q1 62 38 106t98 44q46 0 128 -46t117 -46q38 0 63 30t29 70z" />
    <glyph glyph-name="uni00A0" unicode="&#xa0;" horiz-adv-x="250" 
 />
    <glyph glyph-name="exclamdown" unicode="&#xa1;" horiz-adv-x="333" 
d="M161 286h12q32 -416 32 -459q0 -18 -9.5 -30.5t-28.5 -12.5t-28.5 13t-9.5 30q0 43 32 459zM167 386q-18 0 -31.5 13t-13.5 32q0 18 13 31t32 13t32.5 -13t13.5 -31q0 -19 -13.5 -32t-32.5 -13z" />
    <glyph glyph-name="cent" unicode="&#xa2;" 
d="M316 419l-126 -348q38 -34 89 -34q52 0 90 40t53 102l10 -5q-10 -77 -57 -132.5t-119 -55.5q-46 0 -87 25l-71 -196h-24l76 211q-73 65 -73 201q0 106 57 170t145 64q15 0 27 -3l70 193h24l-72 -198q38 -12 64.5 -38t26.5 -60q0 -16 -9.5 -25.5t-24.5 -9.5
q-26 0 -36.5 16.5t-16.5 43.5t-16 39zM173 88l123 343q-12 4 -31 4q-63 0 -103 -49t-40 -126q0 -112 51 -172z" />
    <glyph glyph-name="sterling" unicode="&#xa3;" 
d="M352 330h-137v-42q0 -91 -23 -175q17 -5 50 -19t60.5 -22.5t51.5 -8.5q41 0 69 24t40 65l11 -3q-8 -67 -43.5 -115t-97.5 -48q-28 0 -52.5 14t-55.5 42.5t-43 36.5q-14 -39 -39 -66t-55 -27q-27 0 -43.5 18t-16.5 46q0 35 24 56.5t60 21.5q26 0 54 -8q4 17 4 44
q0 28 -12 166h-95v29h92q-5 73 -5 97q0 94 41 157.5t128 63.5q55 0 84.5 -32.5t29.5 -68.5q0 -14 -9 -24.5t-21 -10.5q-16 0 -24 11.5t-9 41.5q-2 26 -20 44t-44 18q-104 0 -104 -148q0 -48 11 -149h139v-29zM161 92q-23 15 -56 15q-20 0 -36 -14.5t-16 -36.5q0 -48 36 -48
q24 0 44.5 25.5t27.5 58.5z" />
    <glyph glyph-name="currency" unicode="&#xa4;" 
d="M64 503l20 20l77 -78q41 32 94 32q58 0 100 -36l81 81l19 -18l-81 -83q33 -40 33 -92q0 -56 -35 -97l80 -80l-19 -20l-81 80q-40 -34 -94 -34q-58 0 -98 32l-78 -79l-18 19l77 78q-37 45 -37 102q0 54 37 96zM375 329q0 51 -35.5 85t-85.5 34q-49 0 -83.5 -34.5
t-34.5 -83.5q0 -52 34.5 -87.5t86.5 -35.5q51 0 84.5 36t33.5 86z" />
    <glyph glyph-name="yen" unicode="&#xa5;" 
d="M281 281v-182q0 -53 15.5 -69t71.5 -17v-13h-237v13q54 1 71 18t17 68v176l-29 68h-181v26h168l-46 109h-122v26h113l-25 58q-21 48 -37 67t-50 20v13h195v-13q-61 -1 -61 -28q0 -7 15 -49l30 -68h162l26 61q17 41 17 55q0 15 -11 21.5t-46 7.5v13h154v-13
q-36 -2 -53 -23t-44 -87l-15 -35h113v-26h-124l-47 -109h171v-26h-183zM340 478h-141l72 -167z" />
    <glyph glyph-name="brokenbar" unicode="&#xa6;" horiz-adv-x="200" 
d="M114 88v-304h-29v304h29zM114 694v-303h-29v303h29z" />
    <glyph glyph-name="section" unicode="&#xa7;" horiz-adv-x="499" 
d="M193 418q-64 66 -64 121q0 60 37.5 98.5t96.5 38.5q52 0 87 -31.5t35 -77.5q0 -15 -9 -26t-23 -11t-23.5 9.5t-9.5 22.5q0 7 3 20.5t3 21.5q0 57 -63 57q-42 0 -69.5 -27t-27.5 -63q0 -34 26 -66.5t63 -60l73.5 -56.5t62.5 -69t26 -85q0 -103 -110 -168q61 -65 61 -119
q0 -62 -36.5 -101.5t-95.5 -39.5q-48 0 -83.5 33t-35.5 79q0 15 9.5 26.5t24.5 11.5t23 -11t8 -27q0 -8 -4 -27t-4 -26q0 -19 19.5 -31t46.5 -12q37 0 64 23.5t27 59.5q0 34 -25.5 67.5t-62 62.5l-73 60t-62 71t-25.5 84q0 51 31 95.5t79 72.5zM205 406q-36 -20 -60.5 -51.5
t-24.5 -66.5q0 -40 27.5 -76.5t81 -79t65.5 -54.5q33 18 60 49.5t27 62.5q0 43 -28 80t-81 79.5t-67 56.5z" />
    <glyph glyph-name="dieresis" unicode="&#xa8;" horiz-adv-x="333" 
d="M81 565q-17 0 -28.5 12t-11.5 28q0 17 11.5 29t28.5 12t29 -12t12 -29t-12 -28.5t-29 -11.5zM252 565q-17 0 -29 12t-12 28q0 17 12 29t29 12t28.5 -11.5t11.5 -29.5q0 -17 -12 -28.5t-28 -11.5z" />
    <glyph glyph-name="copyright" unicode="&#xa9;" horiz-adv-x="760" 
d="M547 554l10 -137h-12q-14 53 -56.5 87t-96.5 34q-82 0 -125 -53.5t-43 -141.5q0 -97 44 -154t128 -57q45 0 91.5 24t70.5 61l12 -7q-66 -99 -191 -99q-89 0 -150 60.5t-61 153.5q0 101 64 165t164 64q32 0 69 -13t44 -13q18 0 24 26h14zM726 331q0 -143 -101.5 -244.5
t-244.5 -101.5t-244.5 101.5t-101.5 244.5t101.5 244.5t244.5 101.5t244.5 -101.5t101.5 -244.5zM703 331q0 137 -95 231t-229 94q-135 0 -228.5 -93t-93.5 -232q0 -138 94.5 -231.5t228.5 -93.5t228.5 94.5t94.5 230.5z" />
    <glyph glyph-name="ordfeminine" unicode="&#xaa;" horiz-adv-x="270" 
d="M226 584v-146q0 -22 12 -22q9 0 24 11v-20q-36 -23 -57 -23q-26 0 -27 52q-69 -52 -115 -52q-24 0 -40.5 17t-16.5 44q0 24 16 45t48 38t52 25.5t56 21.5q0 48 -12.5 67t-48.5 19q-24 0 -38.5 -12t-14.5 -31q0 -39 -26 -39q-10 0 -16.5 7.5t-6.5 19.5q0 31 31.5 50.5
t80.5 19.5q48 0 73.5 -24t25.5 -68zM178 453v105q-117 -40 -117 -92q0 -21 13 -33t33 -12q8 0 18.5 3.5t18 8l19 11.5t15.5 9z" />
    <glyph glyph-name="guillemotleft" unicode="&#xab;" horiz-adv-x="499" 
d="M244 -4h-14l-183 230l183 230h14l-129 -230zM464 -4h-14l-184 230l184 230h14l-130 -230z" />
    <glyph glyph-name="logicalnot" unicode="&#xac;" horiz-adv-x="564" 
d="M20 424h525v-185h-27v158h-498v27z" />
    <glyph glyph-name="uni00AD" unicode="&#xad;" horiz-adv-x="333" 
d="M40 253h253v-41h-253v41z" />
    <glyph glyph-name="registered" unicode="&#xae;" horiz-adv-x="760" 
d="M256 212v249q0 46 -9.5 60.5t-36.5 14.5v11h168q68 0 107.5 -30.5t39.5 -77.5q0 -44 -32 -73.5t-79 -36.5l100 -135q24 -33 40 -46.5t38 -13.5v-10h-95l-146 202h-42v-152q0 -23 11.5 -31t46.5 -9v-10h-162v10q32 1 41.5 14.5t9.5 63.5zM309 342h9q77 0 113.5 20t36.5 69
q0 45 -29.5 73t-85.5 28q-23 0 -44 -6v-184zM726 331q0 -143 -101.5 -244.5t-244.5 -101.5t-244.5 101t-101.5 245q0 143 101 244.5t245 101.5q143 0 244.5 -101.5t101.5 -244.5zM703 331q0 138 -95 231t-228 93t-227.5 -93.5t-94.5 -230.5t93 -231t229 -94q133 0 228 92.5
t95 232.5z" />
    <glyph glyph-name="macron" unicode="&#xaf;" horiz-adv-x="333" 
d="M11 618h311v-37h-311v37z" />
    <glyph glyph-name="degree" unicode="&#xb0;" horiz-adv-x="400" 
d="M351 528q0 -62 -43.5 -106.5t-105.5 -44.5q-65 0 -109.5 44t-44.5 108q0 61 45 104t106 43t106.5 -43.5t45.5 -104.5zM319 528q0 50 -35.5 84.5t-85.5 34.5q-48 0 -83 -34.5t-35 -83.5q0 -51 35 -87t86 -36q50 0 84 36t34 86z" />
    <glyph glyph-name="plusminus" unicode="&#xb1;" horiz-adv-x="564" 
d="M20 69v27h247v223h-247v27h247v249h28v-249h250v-27h-250v-223h250v-27h-525z" />
    <glyph glyph-name="twosuperior" unicode="&#xb2;" horiz-adv-x="300" 
d="M274 393l-28 -69h-237v18l29.5 22.5t36 28.5l35 29.5t36 34.5l27.5 33.5t21.5 36t6.5 34.5q0 35 -21.5 56.5t-56.5 21.5q-33 0 -56 -18t-32 -47h-13q7 49 37 75.5t79 26.5q45 0 77.5 -27t32.5 -66q0 -84 -175 -218h114q58 0 74 28h13z" />
    <glyph glyph-name="threesuperior" unicode="&#xb3;" horiz-adv-x="300" 
d="M41 592l-11 7q33 77 108 77q33 0 61 -20t28 -55q0 -23 -14.5 -45.5t-37.5 -34.5q75 -23 75 -82q0 -60 -49.5 -91t-110.5 -31q-66 0 -66 28q0 9 8 14t18 5t35.5 -13t42.5 -13q31 0 53.5 19.5t22.5 51.5q0 84 -118 84v12q36 2 65.5 22.5t29.5 53.5q0 28 -16.5 44t-47.5 16
q-43 0 -76 -49z" />
    <glyph glyph-name="acute" unicode="&#xb4;" horiz-adv-x="333" 
d="M181 715h80l-132 -169h-11z" />
    <glyph glyph-name="mu" unicode="&#xb5;" 
d="M71 447h55v-273q0 -78 16 -107t59 -29q32 0 73.5 23t64.5 50v336h55v-328q0 -46 9 -67.5t32 -21.5q20 0 32 20.5t14 48.5h13q-1 -47 -24 -80t-66 -33q-29 0 -46 26t-19 68q-32 -39 -78 -66.5t-92 -27.5q-53 0 -77 45h-2q0 -49 8 -115t8 -84q0 -23 -9 -35.5t-23 -12.5
q-33 0 -33 48q0 18 15 92t15 144v379z" />
    <glyph glyph-name="paragraph" unicode="&#xb6;" horiz-adv-x="449" 
d="M387 640v-856h-27v856h-105v-856h-27v509q-105 0 -168.5 44.5t-63.5 139.5q0 88 56.5 136.5t159.5 48.5h243v-22h-68z" />
    <glyph glyph-name="periodcentered" unicode="&#xb7;" horiz-adv-x="250" 
d="M125 284q-19 0 -32.5 13.5t-13.5 32.5q0 18 13.5 31.5t32.5 13.5q18 0 31 -13.5t13 -31.5t-13 -32t-31 -14z" />
    <glyph glyph-name="cedilla" unicode="&#xb8;" horiz-adv-x="333" 
d="M146 8h27l-19 -65q42 0 67 -19t25 -48q0 -43 -33 -67.5t-72 -24.5q-29 0 -61 8l3 13q18 -6 39 -6q32 0 52.5 16t20.5 41q0 29 -20.5 45t-56.5 18z" />
    <glyph glyph-name="onesuperior" unicode="&#xb9;" horiz-adv-x="300" 
d="M71 636l94 40h15v-301q0 -25 8.5 -31t41.5 -7v-13h-149v13q33 0 41.5 6t8.5 32v193q0 40 -3.5 52.5t-14.5 12.5q-13 0 -36 -9z" />
    <glyph glyph-name="ordmasculine" unicode="&#xba;" horiz-adv-x="306" 
d="M286 531q0 -58 -38 -102.5t-94 -44.5q-57 0 -93.5 41.5t-36.5 100.5q0 66 38 108t98 42q56 0 91 -43t35 -102zM236 501q0 69 -28 113t-65 44q-69 0 -69 -99q0 -72 26 -115.5t60 -43.5q36 0 56 26t20 75z" />
    <glyph glyph-name="guillemotright" unicode="&#xbb;" horiz-adv-x="499" 
d="M257 456h14l183 -230l-183 -230h-14l129 230zM37 456h14l183 -230l-183 -230h-14l129 230z" />
    <glyph glyph-name="onequarter" unicode="&#xbc;" horiz-adv-x="750" 
d="M737 128v-32h-58v-96h-50v96h-173v28l183 227h40v-223h58zM629 128v176h-1l-141 -176h142zM71 636l94 40h15v-301q0 -24 8.5 -31t41.5 -7v-13h-149v13q33 0 41.5 6.5t8.5 31.5v194q0 41 -3.5 52.5t-14.5 11.5q-13 0 -36 -9zM622 676l-456 -702h-31l456 702h31z" />
    <glyph glyph-name="onehalf" unicode="&#xbd;" horiz-adv-x="747" 
d="M71 636l94 40h15v-301q0 -25 8.5 -31t41.5 -7v-13h-149v13q33 0 41.5 6.5t8.5 31.5v194q0 41 -3.5 52.5t-13.5 11.5q-14 0 -37 -9zM623 676l-456 -702h-31l456 702h31zM717 70l-29 -69h-236v18q3 2 29 22.5l36.5 29l34.5 29t36.5 35l27.5 33.5t21.5 36.5t6.5 34.5
q0 35 -22 56.5t-55 21.5t-56.5 -18.5t-32.5 -47.5h-13q7 49 37 75.5t79 26.5q42 0 76 -25.5t34 -67.5q0 -22 -14 -49.5t-28.5 -46t-46.5 -48.5t-43 -39l-43 -35h114q57 0 74 28h13z" />
    <glyph glyph-name="threequarters" unicode="&#xbe;" horiz-adv-x="749" 
d="M622 676l-456 -702h-31l456 702h31zM737 128v-32h-58v-96h-50v96h-173v28l183 227h40v-223h58zM629 128v176h-2l-140 -176h142zM40 593l-10 6q33 77 108 77q33 0 61 -20t28 -55q0 -23 -14.5 -45.5t-37.5 -34.5q75 -23 75 -82q0 -60 -49.5 -91t-110.5 -31q-66 0 -66 28
q0 9 8.5 14t17.5 5q10 0 35.5 -13t42.5 -13q31 0 53.5 19.5t22.5 51.5q0 84 -118 84v12q36 2 65.5 22.5t29.5 53.5q0 28 -16.5 44t-47.5 16q-45 0 -77 -48z" />
    <glyph glyph-name="questiondown" unicode="&#xbf;" horiz-adv-x="444" 
d="M228 304h13q0 -54 -18.5 -106t-41 -86.5t-41 -79t-18.5 -85.5q0 -64 33 -104t84 -40q49 0 77.5 21t28.5 49q0 19 -15 45.5t-15 39.5q0 17 9 26.5t23 9.5q21 0 34.5 -20t13.5 -50q0 -57 -43 -99t-130 -42q-48 0 -83.5 15.5t-52.5 41t-24.5 50t-7.5 48.5q0 41 18 78.5
t43.5 68l51 61.5t43.5 72t18 86zM235 475q19 0 32.5 -13.5t13.5 -32.5q0 -18 -13.5 -31t-32.5 -13t-32 13t-13 31t13 32t32 14z" />
    <glyph glyph-name="Agrave" unicode="&#xc0;" horiz-adv-x="719" 
d="M476 227h-274l-40 -101q-22 -52 -22 -72q0 -16 10.5 -25t24 -11.5t39.5 -4.5v-13h-193v13q38 4 59 26t44 77l226 561h8l221 -540q29 -73 46 -91q25 -29 72 -33v-13h-229v13q38 2 54 11t16 34q0 17 -26 81zM466 251l-129 319l-125 -319h254zM214 878h79l62 -169h-11z" />
    <glyph glyph-name="Aacute" unicode="&#xc1;" horiz-adv-x="719" 
d="M476 227h-274l-40 -101q-22 -52 -22 -72q0 -16 10.5 -25t24 -11.5t39.5 -4.5v-13h-193v13q38 4 59 26t44 77l226 561h8l221 -540q29 -73 46 -91q25 -29 72 -33v-13h-229v13q38 2 54 11t16 34q0 17 -26 81zM466 251l-129 319l-125 -319h254zM416 878h80l-132 -169h-11z
" />
    <glyph glyph-name="Acircumflex" unicode="&#xc2;" horiz-adv-x="719" 
d="M476 227h-274l-40 -101q-22 -52 -22 -72q0 -16 10.5 -25t24 -11.5t39.5 -4.5v-13h-193v13q38 4 59 26t44 77l226 561h8l221 -540q29 -73 46 -91q25 -29 72 -33v-13h-229v13q38 2 54 11t16 34q0 17 -26 81zM466 251l-129 319l-125 -319h254zM325 865h59l108 -161h-12
l-127 112l-125 -112h-12z" />
    <glyph glyph-name="Atilde" unicode="&#xc3;" horiz-adv-x="719" 
d="M476 227h-274l-40 -101q-22 -52 -22 -72q0 -16 10.5 -25t24 -11.5t39.5 -4.5v-13h-193v13q38 4 59 26t44 77l226 561h8l221 -540q29 -73 46 -91q25 -29 72 -33v-13h-229v13q38 2 54 11t16 34q0 17 -26 81zM466 251l-129 319l-125 -319h254zM216 714h-12q-1 50 20.5 85
t63.5 35q35 0 90 -36q49 -32 69 -32q43 0 55 76h11q1 -50 -20 -84t-63 -34q-34 0 -91 37q-50 31 -69 31q-43 0 -54 -78z" />
    <glyph glyph-name="Adieresis" unicode="&#xc4;" horiz-adv-x="719" 
d="M476 227h-274l-40 -101q-22 -52 -22 -72q0 -16 10.5 -25t24 -11.5t39.5 -4.5v-13h-193v13q38 4 59 26t44 77l226 561h8l221 -540q29 -73 46 -91q25 -29 72 -33v-13h-229v13q38 2 54 11t16 34q0 17 -26 81zM466 251l-129 319l-125 -319h254zM269 743q-17 0 -28.5 12
t-11.5 28q0 17 11.5 29t28.5 12t29 -12t12 -29t-12 -28.5t-29 -11.5zM440 743q-17 0 -29 12t-12 28q0 17 12 29t29 12t28.5 -11.5t11.5 -29.5q0 -17 -12 -28.5t-28 -11.5z" />
    <glyph glyph-name="Aring" unicode="&#xc5;" horiz-adv-x="719" 
d="M476 227h-274l-40 -101q-22 -52 -22 -72q0 -16 10.5 -25t24 -11.5t39.5 -4.5v-13h-193v13q38 4 59 26t44 77l226 561h8l221 -540q29 -73 46 -91q25 -29 72 -33v-13h-229v13q38 2 54 11t16 34q0 17 -26 81zM466 251l-129 319l-125 -319h254zM259 769q0 39 27.5 66.5
t66.5 27.5q40 0 67 -27.5t27 -66.5t-27.5 -66.5t-66.5 -27.5t-66.5 27.5t-27.5 66.5zM283 769q0 -29 20.5 -50t49.5 -21t49.5 21t20.5 50t-20.5 49.5t-49.5 20.5q-30 0 -50 -20.5t-20 -49.5z" />
    <glyph glyph-name="AE" unicode="&#xc6;" horiz-adv-x="885" 
d="M416 262h-199l-57 -107q-41 -73 -41 -98q0 -39 73 -44v-13h-195v13q52 0 102 93l213 394q43 81 43 105q0 44 -82 44v13h521l9 -139h-13q-14 74 -40 93.5t-100 19.5h-172v-277h136q64 0 88 17t28 80h13v-221h-13q-6 63 -29 80.5t-87 17.5h-136v-257q0 -30 11 -40t43 -10
h140q61 0 94 29t77 104h13l-56 -159h-478v13q60 1 77 20t17 89v140zM414 632l-184 -346h186v346h-2z" />
    <glyph glyph-name="Ccedilla" unicode="&#xc7;" horiz-adv-x="667" 
d="M597 677l16 -225h-11q-21 91 -77.5 145t-144.5 54q-109 0 -177.5 -88.5t-68.5 -243.5q0 -76 22.5 -135.5t60 -94t82 -52t93.5 -17.5q76 0 128.5 35.5t101.5 106.5l10 -7q-45 -83 -108 -125t-154 -45l-12 -42q42 0 67 -19t25 -48q0 -43 -33 -67.5t-72 -24.5q-29 0 -61 8
l3 13q18 -6 39 -6q32 0 52.5 16t20.5 41q0 29 -20.5 45t-56.5 18l21 67q-131 5 -211.5 99t-80.5 233q0 151 91 254.5t236 103.5q41 0 78 -12t60.5 -23.5t32.5 -11.5q34 0 36 48h12z" />
    <glyph glyph-name="Egrave" unicode="&#xc8;" horiz-adv-x="610" 
d="M190 636v-277h149q64 0 88 16.5t28 80.5h13v-221h-13q-6 64 -29 81t-87 17h-149v-239q0 -38 14 -53t55 -15h137q61 0 94.5 29t77.5 104h13l-56 -159h-491v13q60 0 77 20t17 89v434q0 57 -18.5 75t-75.5 18v13h485l9 -142h-13q-14 74 -40.5 95t-99.5 21h-185zM185 878h79
l62 -169h-11z" />
    <glyph glyph-name="Eacute" unicode="&#xc9;" horiz-adv-x="610" 
d="M190 636v-277h149q64 0 88 16.5t28 80.5h13v-221h-13q-6 64 -29 81t-87 17h-149v-239q0 -38 14 -53t55 -15h137q61 0 94.5 29t77.5 104h13l-56 -159h-491v13q60 0 77 20t17 89v434q0 57 -18.5 75t-75.5 18v13h485l9 -142h-13q-14 74 -40.5 95t-99.5 21h-185zM373 878h80
l-132 -169h-11z" />
    <glyph glyph-name="Ecircumflex" unicode="&#xca;" horiz-adv-x="610" 
d="M190 636v-277h149q64 0 88 16.5t28 80.5h13v-221h-13q-6 64 -29 81t-87 17h-149v-239q0 -38 14 -53t55 -15h137q61 0 94.5 29t77.5 104h13l-56 -159h-491v13q60 0 77 20t17 89v434q0 57 -18.5 75t-75.5 18v13h485l9 -142h-13q-14 74 -40.5 95t-99.5 21h-185zM278 865h59
l108 -161h-12l-127 112l-125 -112h-12z" />
    <glyph glyph-name="Edieresis" unicode="&#xcb;" horiz-adv-x="610" 
d="M190 636v-277h149q64 0 88 16.5t28 80.5h13v-221h-13q-6 64 -29 81t-87 17h-149v-239q0 -38 14 -53t55 -15h137q61 0 94.5 29t77.5 104h13l-56 -159h-491v13q60 0 77 20t17 89v434q0 57 -18.5 75t-75.5 18v13h485l9 -142h-13q-14 74 -40.5 95t-99.5 21h-185zM220 743
q-17 0 -28.5 12t-11.5 28q0 17 11.5 29t28.5 12t29 -12t12 -29t-12 -28.5t-29 -11.5zM391 743q-17 0 -29 12t-12 28q0 17 12 29t29 12t28.5 -11.5t11.5 -29.5q0 -17 -11.5 -28.5t-28.5 -11.5z" />
    <glyph glyph-name="Igrave" unicode="&#xcc;" horiz-adv-x="325" 
d="M194 555v-446q0 -63 16 -79t78 -17v-13h-250v13q57 1 75.5 19.5t18.5 76.5v446q0 57 -17.5 75t-76.5 19v13h250v-13q-56 -1 -75 -18.5t-19 -75.5zM35 878h79l62 -169h-11z" />
    <glyph glyph-name="Iacute" unicode="&#xcd;" horiz-adv-x="325" 
d="M194 555v-446q0 -63 16 -79t78 -17v-13h-250v13q57 1 75.5 19.5t18.5 76.5v446q0 57 -17.5 75t-76.5 19v13h250v-13q-56 -1 -75 -18.5t-19 -75.5zM219 878h80l-132 -169h-11z" />
    <glyph glyph-name="Icircumflex" unicode="&#xce;" horiz-adv-x="325" 
d="M194 555v-446q0 -63 16 -79t78 -17v-13h-250v13q57 1 75.5 19.5t18.5 76.5v446q0 57 -17.5 75t-76.5 19v13h250v-13q-56 -1 -75 -18.5t-19 -75.5zM135 865h59l108 -161h-12l-127 112l-125 -112h-12z" />
    <glyph glyph-name="Idieresis" unicode="&#xcf;" horiz-adv-x="325" 
d="M194 555v-446q0 -63 16 -79t78 -17v-13h-250v13q57 1 75.5 19.5t18.5 76.5v446q0 57 -17.5 75t-76.5 19v13h250v-13q-56 -1 -75 -18.5t-19 -75.5zM77 743q-17 0 -28.5 12t-11.5 28q0 17 11.5 29t28.5 12t29 -12t12 -29t-12 -28.5t-29 -11.5zM248 743q-17 0 -29 12t-12 28
q0 17 12 29t29 12t28.5 -11.5t11.5 -29.5q0 -17 -12 -28.5t-28 -11.5z" />
    <glyph glyph-name="Eth" unicode="&#xd0;" horiz-adv-x="720" 
d="M128 332h-97v27h97v197q0 56 -18.5 74t-75.5 19v13h255q174 0 276.5 -78t102.5 -250q0 -142 -90.5 -238t-251.5 -96h-292v13q60 0 77 20.5t17 88.5v210zM190 359h199v-27h-199v-292q55 -13 120 -13q124 0 199.5 82.5t75.5 221.5q0 151 -77.5 228.5t-202.5 77.5
q-60 0 -115 -15v-263z" />
    <glyph glyph-name="Ntilde" unicode="&#xd1;" horiz-adv-x="720" 
d="M150 532v-412q0 -70 15.5 -88t78.5 -19v-13h-217v13q60 1 77 19t17 88v450q-22 28 -36.5 42t-39.5 25.5t-57 11.5v13h141l450 -552h2v428q0 71 -17 90.5t-77 20.5v13h217v-13q-58 -1 -76 -21t-18 -90v-549h-14l-444 543h-2zM233 714h-12q-1 50 20.5 85t63.5 35
q35 0 90 -36q49 -32 69 -32q43 0 55 76h11q1 -50 -20 -84t-63 -34q-34 0 -91 37q-50 31 -69 31q-43 0 -54 -78z" />
    <glyph glyph-name="Ograve" unicode="&#xd2;" horiz-adv-x="722" 
d="M361 -15q-136 0 -224.5 101.5t-88.5 244.5q0 142 88.5 244t224.5 102q137 0 224 -100t87 -246q0 -143 -87.5 -244.5t-223.5 -101.5zM361 9q111 0 169.5 91.5t58.5 230.5q0 140 -57.5 231t-170.5 91q-115 0 -172.5 -92t-57.5 -230q0 -139 59.5 -230.5t170.5 -91.5z
M229 878h79l62 -169h-11z" />
    <glyph glyph-name="Oacute" unicode="&#xd3;" horiz-adv-x="722" 
d="M361 -15q-136 0 -224.5 101.5t-88.5 244.5q0 142 88.5 244t224.5 102q137 0 224 -100t87 -246q0 -143 -87.5 -244.5t-223.5 -101.5zM361 9q111 0 169.5 91.5t58.5 230.5q0 140 -57.5 231t-170.5 91q-115 0 -172.5 -92t-57.5 -230q0 -139 59.5 -230.5t170.5 -91.5z
M423 878h80l-132 -169h-11z" />
    <glyph glyph-name="Ocircumflex" unicode="&#xd4;" horiz-adv-x="722" 
d="M361 -15q-136 0 -224.5 101.5t-88.5 244.5q0 142 88.5 244t224.5 102q137 0 224 -100t87 -246q0 -143 -87.5 -244.5t-223.5 -101.5zM361 9q111 0 169.5 91.5t58.5 230.5q0 140 -57.5 231t-170.5 91q-115 0 -172.5 -92t-57.5 -230q0 -139 59.5 -230.5t170.5 -91.5z
M331 865h59l108 -161h-12l-127 112l-125 -112h-12z" />
    <glyph glyph-name="Otilde" unicode="&#xd5;" horiz-adv-x="722" 
d="M361 -15q-136 0 -224.5 101.5t-88.5 244.5q0 142 88.5 244t224.5 102q137 0 224 -100t87 -246q0 -143 -87.5 -244.5t-223.5 -101.5zM361 9q111 0 169.5 91.5t58.5 230.5q0 140 -57.5 231t-170.5 91q-115 0 -172.5 -92t-57.5 -230q0 -139 59.5 -230.5t170.5 -91.5z
M223 714h-12q-1 50 20.5 85t63.5 35q35 0 90 -36q49 -32 69 -32q43 0 55 76h11q1 -50 -20 -84t-63 -34q-34 0 -91 37q-50 31 -69 31q-43 0 -54 -78z" />
    <glyph glyph-name="Odieresis" unicode="&#xd6;" horiz-adv-x="722" 
d="M361 -15q-136 0 -224.5 101.5t-88.5 244.5q0 142 88.5 244t224.5 102q137 0 224 -100t87 -246q0 -143 -87.5 -244.5t-223.5 -101.5zM361 9q111 0 169.5 91.5t58.5 230.5q0 140 -57.5 231t-170.5 91q-115 0 -172.5 -92t-57.5 -230q0 -139 59.5 -230.5t170.5 -91.5z
M276 743q-17 0 -28.5 12t-11.5 28q0 17 11.5 29t28.5 12t29 -12t12 -29t-12 -28.5t-29 -11.5zM447 743q-17 0 -29 12t-12 28q0 17 12 29t29 12t28.5 -11.5t11.5 -29.5q0 -17 -11.5 -28.5t-28.5 -11.5z" />
    <glyph glyph-name="multiply" unicode="&#xd7;" horiz-adv-x="564" 
d="M86 155l177 177l-178 177l19 19l178 -176l178 177l18 -19l-178 -178l178 -178l-19 -19l-178 177l-177 -176z" />
    <glyph glyph-name="Oslash" unicode="&#xd8;" horiz-adv-x="722" 
d="M545 538l-355 -439q61 -90 171 -90q60 0 106 27.5t71.5 75t38 102.5t12.5 117q0 125 -44 207zM177 121l357 439q-62 94 -173 94q-61 0 -107.5 -28t-72 -76t-38 -103t-12.5 -116q0 -126 46 -210zM649 666l-68 -84q91 -100 91 -251q0 -144 -87.5 -245t-223.5 -101
q-117 0 -201 78l-67 -84l-18 17q13 14 68 84q-95 101 -95 251q0 142 88.5 244t224.5 102q121 0 204 -80l65 83q1 0 9.5 -7t9.5 -7z" />
    <glyph glyph-name="Ugrave" unicode="&#xd9;" horiz-adv-x="719" 
d="M117 237v319q0 56 -17.5 74t-76.5 19v13h250v-13q-57 -1 -75.5 -19t-18.5 -74v-285q0 -136 42 -196.5t143 -60.5q109 0 161.5 64t52.5 195v267q0 69 -14.5 88.5t-79.5 20.5v13h217v-13q-65 0 -79.5 -19.5t-14.5 -89.5v-300q0 -115 -59.5 -185t-187.5 -70q-243 0 -243 252
zM248 878h79l62 -169h-11z" />
    <glyph glyph-name="Uacute" unicode="&#xda;" horiz-adv-x="719" 
d="M117 237v319q0 56 -17.5 74t-76.5 19v13h250v-13q-57 -1 -75.5 -19t-18.5 -74v-285q0 -136 42 -196.5t143 -60.5q109 0 161.5 64t52.5 195v267q0 69 -14.5 88.5t-79.5 20.5v13h217v-13q-65 0 -79.5 -19.5t-14.5 -89.5v-300q0 -115 -59.5 -185t-187.5 -70q-243 0 -243 252
zM439 878h80l-132 -169h-11z" />
    <glyph glyph-name="Ucircumflex" unicode="&#xdb;" horiz-adv-x="719" 
d="M117 237v319q0 56 -17.5 74t-76.5 19v13h250v-13q-57 -1 -75.5 -19t-18.5 -74v-285q0 -136 42 -196.5t143 -60.5q109 0 161.5 64t52.5 195v267q0 69 -14.5 88.5t-79.5 20.5v13h217v-13q-65 0 -79.5 -19.5t-14.5 -89.5v-300q0 -115 -59.5 -185t-187.5 -70q-243 0 -243 252
zM359 865h59l108 -161h-12l-127 112l-125 -112h-12z" />
    <glyph glyph-name="Udieresis" unicode="&#xdc;" horiz-adv-x="719" 
d="M117 237v319q0 56 -17.5 74t-76.5 19v13h250v-13q-57 -1 -75.5 -19t-18.5 -74v-285q0 -136 42 -196.5t143 -60.5q109 0 161.5 64t52.5 195v267q0 69 -14.5 88.5t-79.5 20.5v13h217v-13q-65 0 -79.5 -19.5t-14.5 -89.5v-300q0 -115 -59.5 -185t-187.5 -70q-243 0 -243 252
zM295 743q-17 0 -28.5 12t-11.5 28q0 17 11.5 29t28.5 12t29 -12t12 -29t-12 -28.5t-29 -11.5zM466 743q-17 0 -29 12t-12 28q0 17 12 29t29 12t28.5 -11.5t11.5 -29.5q0 -17 -12 -28.5t-28 -11.5z" />
    <glyph glyph-name="Yacute" unicode="&#xdd;" horiz-adv-x="720" 
d="M376 306l138 217q34 53 34 80q0 46 -69 46v13h219v-13q-44 -1 -75 -26t-59 -70l-173 -273v-170q0 -63 15.5 -79.5t78.5 -17.5v-13h-250v13q55 1 74.5 19t19.5 78v162l-209 321q-36 56 -95 56v13h254v-13q-38 0 -58 -8.5t-20 -33.5q0 -19 21 -52zM441 877h80l-132 -169
h-11z" />
    <glyph glyph-name="Thorn" unicode="&#xde;" horiz-adv-x="555" 
d="M127 109v444q0 61 -18 78t-76 18v13h250v-13q-57 -1 -75.5 -19t-18.5 -77v-41h83q112 0 172 -49.5t60 -133.5q0 -83 -60 -131.5t-163 -48.5h-92v-40q0 -64 15.5 -79.5t78.5 -16.5v-13h-250v13q59 1 76.5 18t17.5 78zM189 490v-319h64q81 0 124.5 41.5t43.5 123.5
q0 154 -213 154h-19z" />
    <glyph glyph-name="germandbls" unicode="&#xdf;" horiz-adv-x="492" 
d="M142 0h-126v13q44 1 56.5 13t12.5 54v395q0 219 162 219q72 0 117 -42t45 -115q0 -105 -91 -138v-2q67 -15 99 -67t32 -125q0 -87 -40.5 -149t-113.5 -62q-36 0 -62 21.5t-26 54.5q0 16 10 26.5t26 10.5t25.5 -9.5t9.5 -25.5q0 -7 -3.5 -16t-3.5 -14q0 -27 32 -27
q39 0 61 42.5t22 96.5q0 38 -8 75.5t-24.5 73t-48 58t-73.5 23.5v16q60 -3 89 39t29 102q0 65 -28.5 97t-75.5 32q-50 0 -77 -39t-27 -137v-494z" />
    <glyph glyph-name="agrave" unicode="&#xe0;" horiz-adv-x="443" 
d="M352 339v-244q0 -36 6 -48.5t19 -12.5q21 0 58 39v-20q-18 -26 -45.5 -46.5t-46.5 -20.5q-21 0 -34.5 20.5t-13.5 56.5q-54 -44 -84.5 -60.5t-64.5 -16.5q-44 0 -72 30.5t-28 82.5q0 58 57 100.5t192 91.5q0 28 -0.5 42.5t-5 38t-13.5 36t-26.5 22t-43.5 9.5
q-37 0 -57.5 -18t-20.5 -49q0 -66 -37 -66q-15 0 -23.5 11t-8.5 28q0 43 44.5 79.5t116.5 36.5q61 0 96.5 -33t35.5 -89zM295 89v179q-101 -37 -145.5 -73t-44.5 -78q0 -41 20.5 -63.5t50.5 -22.5q25 0 48.5 12t70.5 46zM84 682h79l62 -169h-11z" />
    <glyph glyph-name="aacute" unicode="&#xe1;" horiz-adv-x="443" 
d="M352 339v-244q0 -36 6 -48.5t19 -12.5q21 0 58 39v-20q-18 -26 -45.5 -46.5t-46.5 -20.5q-21 0 -34.5 20.5t-13.5 56.5q-54 -44 -84.5 -60.5t-64.5 -16.5q-44 0 -72 30.5t-28 82.5q0 58 57 100.5t192 91.5q0 28 -0.5 42.5t-5 38t-13.5 36t-26.5 22t-43.5 9.5
q-37 0 -57.5 -18t-20.5 -49q0 -66 -37 -66q-15 0 -23.5 11t-8.5 28q0 43 44.5 79.5t116.5 36.5q61 0 96.5 -33t35.5 -89zM295 89v179q-101 -37 -145.5 -73t-44.5 -78q0 -41 20.5 -63.5t50.5 -22.5q25 0 48.5 12t70.5 46zM277 682h80l-132 -169h-11z" />
    <glyph glyph-name="acircumflex" unicode="&#xe2;" horiz-adv-x="443" 
d="M352 339v-244q0 -36 6 -48.5t19 -12.5q21 0 58 39v-20q-18 -26 -45.5 -46.5t-46.5 -20.5q-21 0 -34.5 20.5t-13.5 56.5q-54 -44 -84.5 -60.5t-64.5 -16.5q-44 0 -72 30.5t-28 82.5q0 58 57 100.5t192 91.5q0 28 -0.5 42.5t-5 38t-13.5 36t-26.5 22t-43.5 9.5
q-37 0 -57.5 -18t-20.5 -49q0 -66 -37 -66q-15 0 -23.5 11t-8.5 28q0 43 44.5 79.5t116.5 36.5q61 0 96.5 -33t35.5 -89zM295 89v179q-101 -37 -145.5 -73t-44.5 -78q0 -41 20.5 -63.5t50.5 -22.5q25 0 48.5 12t70.5 46zM181 677h59l108 -161h-12l-127 112l-125 -112h-12z
" />
    <glyph glyph-name="atilde" unicode="&#xe3;" horiz-adv-x="443" 
d="M352 339v-244q0 -36 6 -48.5t19 -12.5q21 0 58 39v-20q-18 -26 -45.5 -46.5t-46.5 -20.5q-21 0 -34.5 20.5t-13.5 56.5q-54 -44 -84.5 -60.5t-64.5 -16.5q-44 0 -72 30.5t-28 82.5q0 58 57 100.5t192 91.5q0 28 -0.5 42.5t-5 38t-13.5 36t-26.5 22t-43.5 9.5
q-37 0 -57.5 -18t-20.5 -49q0 -66 -37 -66q-15 0 -23.5 11t-8.5 28q0 43 44.5 79.5t116.5 36.5q61 0 96.5 -33t35.5 -89zM295 89v179q-101 -37 -145.5 -73t-44.5 -78q0 -41 20.5 -63.5t50.5 -22.5q25 0 48.5 12t70.5 46zM73 535h-12q-1 50 20.5 85t63.5 35q35 0 90 -36
q49 -32 69 -32q43 0 55 76h11q1 -50 -20 -84t-63 -34q-34 0 -91 37q-50 31 -69 31q-43 0 -54 -78z" />
    <glyph glyph-name="adieresis" unicode="&#xe4;" horiz-adv-x="443" 
d="M352 339v-244q0 -36 6 -48.5t19 -12.5q21 0 58 39v-20q-18 -26 -45.5 -46.5t-46.5 -20.5q-21 0 -34.5 20.5t-13.5 56.5q-54 -44 -84.5 -60.5t-64.5 -16.5q-44 0 -72 30.5t-28 82.5q0 58 57 100.5t192 91.5q0 28 -0.5 42.5t-5 38t-13.5 36t-26.5 22t-43.5 9.5
q-37 0 -57.5 -18t-20.5 -49q0 -66 -37 -66q-15 0 -23.5 11t-8.5 28q0 43 44.5 79.5t116.5 36.5q61 0 96.5 -33t35.5 -89zM295 89v179q-101 -37 -145.5 -73t-44.5 -78q0 -41 20.5 -63.5t50.5 -22.5q25 0 48.5 12t70.5 46zM127 565q-17 0 -28.5 12t-11.5 28q0 17 11.5 29
t28.5 12t29 -12t12 -29t-12 -28.5t-29 -11.5zM298 565q-17 0 -29 12t-12 28q0 17 12 29t29 12t28.5 -11.5t11.5 -29.5q0 -17 -12 -28.5t-28 -11.5z" />
    <glyph glyph-name="aring" unicode="&#xe5;" horiz-adv-x="443" 
d="M352 339v-244q0 -36 6 -48.5t19 -12.5q21 0 58 39v-20q-18 -26 -45.5 -46.5t-46.5 -20.5q-21 0 -34.5 20.5t-13.5 56.5q-54 -44 -84.5 -60.5t-64.5 -16.5q-44 0 -72 30.5t-28 82.5q0 58 57 100.5t192 91.5q0 28 -0.5 42.5t-5 38t-13.5 36t-26.5 22t-43.5 9.5
q-37 0 -57.5 -18t-20.5 -49q0 -66 -37 -66q-15 0 -23.5 11t-8.5 28q0 43 44.5 79.5t116.5 36.5q61 0 96.5 -33t35.5 -89zM295 89v179q-101 -37 -145.5 -73t-44.5 -78q0 -41 20.5 -63.5t50.5 -22.5q25 0 48.5 12t70.5 46zM122 599q0 39 27.5 66.5t66.5 27.5q40 0 67 -27.5
t27 -66.5t-27.5 -66.5t-66.5 -27.5t-66.5 27.5t-27.5 66.5zM146 599q0 -29 20.5 -50t49.5 -21t49.5 21t20.5 50t-20.5 49.5t-49.5 20.5q-30 0 -50 -20.5t-20 -49.5z" />
    <glyph glyph-name="ae" unicode="&#xe6;" horiz-adv-x="678" 
d="M39 100q0 54 53 99t198 95v25q0 66 -21 93t-66 27q-38 0 -58 -18.5t-20 -48.5q0 -66 -36 -66q-33 0 -33 44q0 38 42.5 74.5t116.5 36.5q97 0 126 -67q41 67 130 67q78 0 121.5 -50.5t42.5 -132.5h-289v-55q0 -100 34 -142t101 -42q102 0 143 132l15 -9
q-19 -78 -64.5 -127.5t-119.5 -49.5q-49 0 -82 19.5t-61 61.5q-48 -41 -84 -60.5t-80 -19.5q-55 0 -82 33t-27 81zM303 87q-13 38 -13 184q-190 -64 -190 -152q0 -87 76 -87q32 0 56 11t71 44zM347 303h212q0 132 -108 132q-42 0 -72 -35t-32 -97z" />
    <glyph glyph-name="ccedilla" unicode="&#xe7;" horiz-adv-x="443" 
d="M391 179l12 -5q-10 -77 -54 -130t-113 -57l-12 -44q42 0 67 -19t25 -48q0 -43 -33 -67.5t-72 -24.5q-29 0 -61 8l3 13q18 -6 39 -6q32 0 52.5 16t20.5 41q0 29 -20.5 45t-56.5 18l21 68q-73 7 -118.5 71t-45.5 169q0 106 57.5 170t144.5 64q56 0 99.5 -31.5t43.5 -72.5
q0 -37 -38 -37q-37 0 -43 49q-7 66 -75 66q-62 0 -101.5 -49t-39.5 -125q0 -100 45 -161.5t110 -61.5q54 0 90.5 38t52.5 103z" />
    <glyph glyph-name="egrave" unicode="&#xe8;" horiz-adv-x="452" 
d="M412 278h-319q0 -115 44 -176t114 -61q110 0 147 131l11 -6q-13 -76 -60 -128t-116 -52q-84 0 -137.5 65t-53.5 167q0 112 54.5 177.5t145.5 65.5q76 0 123 -51t47 -132zM94 303h242q1 61 -31 96.5t-84 35.5q-47 0 -85 -37.5t-42 -94.5zM102 682h79l62 -169h-11z" />
    <glyph glyph-name="eacute" unicode="&#xe9;" horiz-adv-x="452" 
d="M412 278h-319q0 -115 44 -176t114 -61q110 0 147 131l11 -6q-13 -76 -60 -128t-116 -52q-84 0 -137.5 65t-53.5 167q0 112 54.5 177.5t145.5 65.5q76 0 123 -51t47 -132zM94 303h242q1 61 -31 96.5t-84 35.5q-47 0 -85 -37.5t-42 -94.5zM283 683h80l-132 -169h-11z" />
    <glyph glyph-name="ecircumflex" unicode="&#xea;" horiz-adv-x="452" 
d="M412 278h-319q0 -115 44 -176t114 -61q110 0 147 131l11 -6q-13 -76 -60 -128t-116 -52q-84 0 -137.5 65t-53.5 167q0 112 54.5 177.5t145.5 65.5q76 0 123 -51t47 -132zM94 303h242q1 61 -31 96.5t-84 35.5q-47 0 -85 -37.5t-42 -94.5zM196 677h59l108 -161h-12
l-127 112l-125 -112h-12z" />
    <glyph glyph-name="edieresis" unicode="&#xeb;" horiz-adv-x="452" 
d="M412 278h-319q0 -115 44 -176t114 -61q110 0 147 131l11 -6q-13 -76 -60 -128t-116 -52q-84 0 -137.5 65t-53.5 167q0 112 54.5 177.5t145.5 65.5q76 0 123 -51t47 -132zM94 303h242q1 61 -31 96.5t-84 35.5q-47 0 -85 -37.5t-42 -94.5zM144 565q-17 0 -28.5 12t-11.5 28
q0 17 11.5 29t28.5 12t29 -12t12 -29t-12 -28.5t-29 -11.5zM315 565q-17 0 -29 12t-12 28q0 17 12 29t29 12t28.5 -11.5t11.5 -29.5q0 -17 -11.5 -28.5t-28.5 -11.5z" />
    <glyph glyph-name="igrave" unicode="&#xec;" horiz-adv-x="278" 
d="M13 682h79l62 -169h-11zM172 461v-381q0 -38 15.5 -52t58.5 -15v-13h-202v13q41 1 56 14.5t15 52.5v277q0 29 -8 40t-27 11q-16 0 -40 -11l-5 11l128 53h9z" />
    <glyph glyph-name="iacute" unicode="&#xed;" horiz-adv-x="278" 
d="M183 682h80l-132 -169h-11zM172 461v-381q0 -38 15.5 -52t58.5 -15v-13h-202v13q41 1 56 14.5t15 52.5v277q0 29 -8 40t-27 11q-16 0 -40 -11l-5 11l128 53h9z" />
    <glyph glyph-name="icircumflex" unicode="&#xee;" horiz-adv-x="278" 
d="M172 461v-381q0 -38 15.5 -52t58.5 -15v-13h-202v13q41 1 56 14.5t15 52.5v277q0 29 -8 40t-27 11q-16 0 -40 -11l-5 11l128 53h9zM103 677h59l108 -161h-12l-127 112l-125 -112h-12z" />
    <glyph glyph-name="idieresis" unicode="&#xef;" horiz-adv-x="278" 
d="M43 565q-17 0 -28.5 12t-11.5 28q0 17 11.5 29t28.5 12t29 -12t12 -29t-12 -28.5t-29 -11.5zM214 565q-17 0 -29 12t-12 28q0 17 12 29t29 12t28.5 -11.5t11.5 -29.5q0 -17 -12 -28.5t-28 -11.5zM172 461v-381q0 -38 15.5 -52t58.5 -15v-13h-202v13q41 1 56 14.5t15 52.5
v277q0 29 -8 40t-27 11q-16 0 -40 -11l-5 11l128 53h9z" />
    <glyph glyph-name="eth" unicode="&#xf0;" horiz-adv-x="504" 
d="M236 579l-135 -76l-11 18l132 76q-15 17 -40 37t-43 32l-18 12l10 13q55 -25 117 -79l138 75l12 -18l-129 -72q81 -70 133.5 -166t52.5 -193q0 -111 -55.5 -181.5t-152.5 -70.5q-77 0 -138.5 70t-61.5 163q0 95 56.5 168.5t146.5 73.5q45 0 77 -29l2 2q-20 44 -43.5 80
t-36.5 50zM241 436q-55 0 -92 -49t-37 -128q0 -109 44.5 -179t109.5 -70q56 0 90 48.5t34 133.5q0 115 -41 179.5t-108 64.5z" />
    <glyph glyph-name="ntilde" unicode="&#xf1;" horiz-adv-x="498" 
d="M149 461v-97q89 97 163 97q101 0 101 -135v-246q0 -41 14 -53.5t59 -13.5v-13h-203v13q44 1 58.5 14t14.5 53v228q0 110 -74 110q-59 0 -133 -79v-259q0 -42 13.5 -54t58.5 -13v-13h-202v13q44 1 58.5 14t14.5 53v261q0 38 -8.5 52t-28.5 14q-13 0 -38 -10l-5 11l127 53
h10zM98 535h-12q-1 50 20.5 85t63.5 35q35 0 90 -36q49 -32 69 -32q43 0 55 76h11q1 -50 -20 -84t-63 -34q-34 0 -91 37q-50 31 -69 31q-43 0 -54 -78z" />
    <glyph glyph-name="ograve" unicode="&#xf2;" horiz-adv-x="496" 
d="M248 461q80 0 142 -65.5t62 -161.5q0 -62 -21 -116.5t-69 -93t-115 -38.5q-79 0 -141 69t-62 163q0 103 59 173t145 70zM238 436q-55 0 -92 -49t-37 -129q0 -107 43.5 -177.5t112.5 -70.5q35 0 60 18t38 47t18.5 58t5.5 58q0 120 -42 182.5t-107 62.5zM106 682h79
l62 -169h-11z" />
    <glyph glyph-name="oacute" unicode="&#xf3;" horiz-adv-x="496" 
d="M248 461q80 0 142 -65.5t62 -161.5q0 -62 -21 -116.5t-69 -93t-115 -38.5q-79 0 -141 69t-62 163q0 103 59 173t145 70zM238 436q-55 0 -92 -49t-37 -129q0 -107 43.5 -177.5t112.5 -70.5q35 0 60 18t38 47t18.5 58t5.5 58q0 120 -42 182.5t-107 62.5zM294 682h80
l-132 -169h-11z" />
    <glyph glyph-name="ocircumflex" unicode="&#xf4;" horiz-adv-x="496" 
d="M248 461q80 0 142 -65.5t62 -161.5q0 -62 -21 -116.5t-69 -93t-115 -38.5q-79 0 -141 69t-62 163q0 103 59 173t145 70zM238 436q-55 0 -92 -49t-37 -129q0 -107 43.5 -177.5t112.5 -70.5q35 0 60 18t38 47t18.5 58t5.5 58q0 120 -42 182.5t-107 62.5zM218 677h59
l108 -161h-12l-127 112l-125 -112h-12z" />
    <glyph glyph-name="otilde" unicode="&#xf5;" horiz-adv-x="496" 
d="M248 461q80 0 142 -65.5t62 -161.5q0 -62 -21 -116.5t-69 -93t-115 -38.5q-79 0 -141 69t-62 163q0 103 59 173t145 70zM238 436q-55 0 -92 -49t-37 -129q0 -107 43.5 -177.5t112.5 -70.5q35 0 60 18t38 47t18.5 58t5.5 58q0 120 -42 182.5t-107 62.5zM106 535h-12
q-1 50 20.5 85t63.5 35q35 0 90 -36q49 -32 69 -32q43 0 55 76h11q1 -50 -20 -84t-63 -34q-34 0 -91 37q-50 31 -69 31q-43 0 -54 -78z" />
    <glyph glyph-name="odieresis" unicode="&#xf6;" horiz-adv-x="496" 
d="M248 461q80 0 142 -65.5t62 -161.5q0 -62 -21 -116.5t-69 -93t-115 -38.5q-79 0 -141 69t-62 163q0 103 59 173t145 70zM238 436q-55 0 -92 -49t-37 -129q0 -107 43.5 -177.5t112.5 -70.5q35 0 60 18t38 47t18.5 58t5.5 58q0 120 -42 182.5t-107 62.5zM162 565
q-17 0 -28.5 12t-11.5 28q0 17 11.5 29t28.5 12t29 -12t12 -29t-12 -28.5t-29 -11.5zM333 565q-17 0 -29 12t-12 28q0 17 12 29t29 12t28.5 -11.5t11.5 -29.5q0 -17 -11.5 -28.5t-28.5 -11.5z" />
    <glyph glyph-name="divide" unicode="&#xf7;" horiz-adv-x="564" 
d="M545 318h-525v28h525v-28zM282 147q-14 0 -24.5 10.5t-10.5 24.5t10.5 24t24.5 10t24.5 -10t10.5 -24t-10.5 -24.5t-24.5 -10.5zM282 447q-14 0 -24.5 10.5t-10.5 24.5t10.5 24.5t24.5 10.5t24.5 -10.5t10.5 -24.5t-10.5 -24.5t-24.5 -10.5z" />
    <glyph glyph-name="oslash" unicode="&#xf8;" 
d="M47 218q0 98 56 170.5t148 72.5q80 0 141 -64l69 76l14 -12l-70 -79q50 -63 50 -148q0 -43 -12 -85t-35.5 -79.5t-65 -60.5t-95.5 -23q-80 0 -138 66l-72 -80l-13 14l73 81q-50 66 -50 151zM112 258q0 -81 27 -145l219 246q-38 77 -122 77q-47 0 -85.5 -43.5
t-38.5 -134.5zM390 191q0 93 -24 149l-219 -246q45 -84 121 -84q35 0 60 18t38 47t18.5 58t5.5 58z" />
    <glyph glyph-name="ugrave" unicode="&#xf9;" horiz-adv-x="487" 
d="M396 447v-347q0 -33 6.5 -46t29.5 -13q16 0 36 8l5 -12l-124 -51h-10v94q-87 -94 -163 -94q-49 0 -75.5 35t-26.5 96v239q0 48 -12.5 62.5t-61.5 15.5v13h131v-324q0 -97 76 -97q29 0 67 24.5t65 53.5v252q0 48 -12.5 62.5t-61.5 15.5v13h131zM77 682h79l62 -169h-11z
" />
    <glyph glyph-name="uacute" unicode="&#xfa;" horiz-adv-x="487" 
d="M396 447v-347q0 -33 6.5 -46t29.5 -13q16 0 36 8l5 -12l-124 -51h-10v94q-87 -94 -163 -94q-49 0 -75.5 35t-26.5 96v239q0 48 -12.5 62.5t-61.5 15.5v13h131v-324q0 -97 76 -97q29 0 67 24.5t65 53.5v252q0 48 -12.5 62.5t-61.5 15.5v13h131zM274 682h80l-132 -169h-11z
" />
    <glyph glyph-name="ucircumflex" unicode="&#xfb;" horiz-adv-x="487" 
d="M396 447v-347q0 -33 6.5 -46t29.5 -13q16 0 36 8l5 -12l-124 -51h-10v94q-87 -94 -163 -94q-49 0 -75.5 35t-26.5 96v239q0 48 -12.5 62.5t-61.5 15.5v13h131v-324q0 -97 76 -97q29 0 67 24.5t65 53.5v252q0 48 -12.5 62.5t-61.5 15.5v13h131zM200 677h59l108 -161h-12
l-127 112l-125 -112h-12z" />
    <glyph glyph-name="udieresis" unicode="&#xfc;" horiz-adv-x="487" 
d="M396 447v-347q0 -33 6.5 -46t29.5 -13q16 0 36 8l5 -12l-124 -51h-10v94q-87 -94 -163 -94q-49 0 -75.5 35t-26.5 96v239q0 48 -12.5 62.5t-61.5 15.5v13h131v-324q0 -97 76 -97q29 0 67 24.5t65 53.5v252q0 48 -12.5 62.5t-61.5 15.5v13h131zM134 565q-17 0 -28.5 12
t-11.5 28q0 17 11.5 29t28.5 12t29 -12t12 -29t-12 -28.5t-29 -11.5zM305 565q-17 0 -29 12t-12 28q0 17 12 29t29 12t28.5 -11.5t11.5 -29.5q0 -17 -11.5 -28.5t-28.5 -11.5z" />
    <glyph glyph-name="yacute" unicode="&#xfd;" horiz-adv-x="497" 
d="M252 23l-167 356q-14 30 -28 41t-43 14v13h189v-13q-32 0 -44 -7.5t-12 -25.5q0 -11 23 -64l112 -237l105 256q13 30 13 51q0 26 -44 27v13h133v-13q-40 0 -62 -52l-197 -477q-26 -63 -62 -92t-68 -29q-27 0 -42.5 11.5t-15.5 30.5q0 17 12 28t30 11q14 0 33 -8t28 -8
q21 0 37 22t40 79zM348 682h80l-132 -169h-11z" />
    <glyph glyph-name="thorn" unicode="&#xfe;" horiz-adv-x="499" 
d="M142 694v-324h2q23 39 63 65t85 26q65 0 110.5 -59t45.5 -166q0 -113 -56 -181.5t-138 -68.5q-33 0 -65 15.5t-47 42.5v-177q0 -42 15 -54t62 -13v-13h-211v13q47 1 62 13t15 54v716q0 33 -8 45.5t-27 12.5q-16 0 -38 -9l-5 11l124 51h11zM142 336v-205q0 -59 32.5 -90
t81.5 -31q59 0 99 54t40 142q0 100 -38.5 153.5t-97.5 53.5q-65 0 -117 -77z" />
    <glyph glyph-name="ydieresis" unicode="&#xff;" horiz-adv-x="497" 
d="M252 23l-167 356q-14 30 -28 41t-43 14v13h189v-13q-32 0 -44 -7.5t-12 -25.5q0 -11 23 -64l112 -237l105 256q13 30 13 51q0 26 -44 27v13h133v-13q-40 0 -62 -52l-197 -477q-26 -63 -62 -92t-68 -29q-27 0 -42.5 11.5t-15.5 30.5q0 17 12 28t30 11q14 0 33 -8t28 -8
q21 0 37 22t40 79zM198 565q-17 0 -28.5 12t-11.5 28q0 17 11.5 29t28.5 12t29 -12t12 -29t-12 -28.5t-29 -11.5zM369 565q-17 0 -29 12t-12 28q0 17 12 29t29 12t28.5 -11.5t11.5 -29.5q0 -17 -11.5 -28.5t-28.5 -11.5z" />
    <glyph glyph-name="dotlessi" unicode="&#x131;" horiz-adv-x="278" 
d="M172 461v-381q0 -38 15.5 -52t58.5 -15v-13h-202v13q41 1 56 14.5t15 52.5v277q0 29 -8 40t-27 11q-16 0 -40 -11l-5 11l128 53h9z" />
    <glyph glyph-name="Lslash" unicode="&#x141;" horiz-adv-x="610" 
d="M190 553v-180l127 105v-30l-127 -105v-226q0 -53 10 -69.5t34 -16.5h171q60 0 99 35.5t71 116.5l12 -3l-57 -180h-496v13q57 1 75.5 19.5t18.5 82.5v177l-117 -97v30l117 97v234q0 59 -18 76t-76 18v12h267v-12q-70 0 -90.5 -17t-20.5 -80z" />
    <glyph glyph-name="lslash" unicode="&#x142;" horiz-adv-x="278" 
d="M172 694v-314l99 81v-30l-99 -81v-270q0 -41 17 -53.5t57 -13.5v-13h-201v13q38 1 54 13t16 54v226l-99 -81v30l99 81v253q0 30 -8 41t-26 11q-17 0 -39 -10l-5 11l124 52h11z" />
    <glyph glyph-name="OE" unicode="&#x152;" horiz-adv-x="881" 
d="M513 636v-277h95q66 0 90 17t28 80h13v-221h-13q-6 63 -29.5 80.5t-88.5 17.5h-95v-251q0 -31 11.5 -43.5t42.5 -12.5h100q61 0 94.5 29t77.5 104h13l-56 -159h-331q-28 0 -62.5 -3.5t-58.5 -3.5q-122 0 -205 104t-83 238q0 87 36 162.5t105 123.5t157 48q21 0 64.5 -3.5
t73.5 -3.5h298l9 -139h-13q-14 73 -41 93t-100 20h-132zM450 158v405q0 82 -94 82q-49 0 -88 -20.5t-62.5 -52t-39 -73.5t-21.5 -82t-6 -81q0 -49 11 -100.5t33.5 -102.5t65.5 -83.5t100 -32.5q60 0 80.5 29t20.5 112z" />
    <glyph glyph-name="oe" unicode="&#x153;" horiz-adv-x="726" 
d="M688 278h-275q3 -115 35 -178t94 -63q95 0 133 134l13 -6q-33 -179 -166 -179q-91 0 -133 79q-47 -79 -148 -79q-75 0 -135 71.5t-60 160.5q0 102 56 172.5t138 70.5q46 0 87.5 -24t61.5 -61q48 85 137 85q75 0 118.5 -49.5t43.5 -133.5zM230 436q-52 0 -85.5 -45
t-33.5 -131q0 -103 37.5 -176t107.5 -73q104 0 104 174q0 135 -38.5 193t-91.5 58zM414 303h196q0 64 -27 98t-73 34q-41 0 -66.5 -38t-29.5 -94z" />
    <glyph glyph-name="Scaron" unicode="&#x160;" horiz-adv-x="561" 
d="M455 677v-229h-10q-6 83 -56 144t-129 61q-54 0 -93.5 -34t-39.5 -82q0 -47 38 -84t92.5 -63.5l109.5 -54t93 -69t38 -94.5q0 -81 -54.5 -134t-145.5 -53q-55 0 -105 18.5t-71 18.5q-17 0 -22.5 -9.5t-7.5 -27.5h-13v227h13q5 -58 28.5 -100.5t56 -62.5t60.5 -29t52 -9
q65 0 106 32t41 91q0 42 -26.5 75.5t-67 54l-87 45t-87 48t-67 62t-26.5 87.5q0 75 55.5 123t133.5 48q42 0 89.5 -19t57.5 -19q26 0 34 38h10zM305 714h-73l-95 161h11l121 -114l121 114h10z" />
    <glyph glyph-name="scaron" unicode="&#x161;" horiz-adv-x="389" 
d="M318 461v-153h-13q-3 57 -34 94t-86 37q-32 0 -58.5 -20t-26.5 -53q0 -34 25.5 -58.5t62 -40.5l73 -33.5t62 -48.5t25.5 -74q0 -58 -43.5 -91.5t-101.5 -33.5q-37 0 -71.5 10t-43.5 10q-15 0 -18 -13h-13v160h13q4 -62 39.5 -103.5t97.5 -41.5q37 0 62 20.5t25 57.5
t-24.5 63t-59.5 42.5l-70 33.5t-59.5 44.5t-24.5 65.5q0 57 38.5 91.5t95.5 34.5q21 0 51.5 -9.5t42.5 -9.5q14 0 21 19h13zM230 516h-73l-95 161h11l121 -114l121 114h10z" />
    <glyph glyph-name="Ydieresis" unicode="&#x178;" horiz-adv-x="720" 
d="M376 306l138 217q34 53 34 80q0 46 -69 46v13h219v-13q-44 -1 -75 -26t-59 -70l-173 -273v-170q0 -63 15.5 -79.5t78.5 -17.5v-13h-250v13q55 1 74.5 19t19.5 78v162l-209 321q-36 56 -95 56v13h254v-13q-38 0 -58 -8.5t-20 -33.5q0 -19 21 -52zM280 743q-17 0 -28.5 12
t-11.5 28q0 17 11.5 29t28.5 12t29 -12t12 -29t-12 -28.5t-29 -11.5zM451 743q-17 0 -29 12t-12 28q0 17 12 29t29 12t28.5 -11.5t11.5 -29.5q0 -17 -11.5 -28.5t-28.5 -11.5z" />
    <glyph glyph-name="Zcaron" unicode="&#x17d;" horiz-adv-x="609" 
d="M110 29h287q66 0 96.5 32.5t59.5 113.5h12l-31 -175h-510v18l438 613h-215q-79 0 -111 -27.5t-43 -107.5h-12l14 166h465zM361 714h-73l-95 161h11l121 -114l121 114h10z" />
    <glyph glyph-name="zcaron" unicode="&#x17e;" horiz-adv-x="442" 
d="M405 131l-7 -131h-370v13l307 409h-145q-67 0 -87 -14t-26 -78h-13v117h349v-12l-304 -409h161q72 0 93.5 17t28.5 88h13zM275 516h-73l-95 161h11l121 -114l121 114h10z" />
    <glyph glyph-name="florin" unicode="&#x192;" horiz-adv-x="498" 
d="M330 431h100l-5 -22h-100q-21 -122 -82 -342q-37 -136 -65 -189q-49 -94 -117 -94q-24 0 -40.5 14t-16.5 37q0 17 10.5 30t24.5 13q13 0 21 -7t8 -18q0 -9 -7.5 -19.5t-7.5 -14.5q0 -16 18 -16q58 0 89 144q65 310 106 462h-87l6 22q56 0 74.5 15.5t38.5 74.5q2 6 9 29
t11 34t12.5 31.5t17 31.5t20.5 23.5t27.5 18t33.5 5.5q27 0 47 -14.5t20 -41.5q0 -15 -9 -25.5t-22 -10.5q-11 0 -20 8t-9 18q0 7 5.5 16.5t5.5 14.5q0 17 -19 17q-56 0 -77 -119z" />
    <glyph glyph-name="circumflex" unicode="&#x2c6;" horiz-adv-x="333" 
d="M137 712h59l108 -161h-12l-127 112l-125 -112h-12z" />
    <glyph glyph-name="caron" unicode="&#x2c7;" horiz-adv-x="333" 
d="M202 551h-73l-95 161h11l121 -114l121 114h10z" />
    <glyph glyph-name="breve" unicode="&#x2d8;" horiz-adv-x="333" 
d="M29 668h11q16 -35 52 -55t74 -20t74.5 20t51.5 55h11q-2 -52 -42 -88.5t-95 -36.5q-56 0 -96 36t-41 89z" />
    <glyph glyph-name="dotaccent" unicode="&#x2d9;" horiz-adv-x="333" 
d="M126 602q0 16 12 28t29 12t28.5 -12t11.5 -28q0 -17 -12 -29t-28 -12q-17 0 -29 12.5t-12 28.5z" />
    <glyph glyph-name="ring" unicode="&#x2da;" horiz-adv-x="333" 
d="M73 599q0 39 27.5 66.5t66.5 27.5q40 0 67 -27.5t27 -66.5t-27.5 -66.5t-66.5 -27.5t-66.5 27.5t-27.5 66.5zM97 599q0 -29 20.5 -50t49.5 -21t49.5 21t20.5 50t-20.5 49.5t-49.5 20.5q-30 0 -50 -20.5t-20 -49.5z" />
    <glyph glyph-name="ogonek" unicode="&#x2db;" horiz-adv-x="333" 
d="M118 8h15q-16 -28 -16 -54q0 -43 30 -68.5t80 -25.5q28 0 63 13l6 -9q-33 -20 -56 -27.5t-56 -7.5q-40 0 -72 22.5t-32 64.5q0 56 38 92z" />
    <glyph glyph-name="tilde" unicode="&#x2dc;" horiz-adv-x="333" 
d="M25 538h-12q-1 50 20.5 85t63.5 35q35 0 90 -36q49 -32 69 -32q43 0 55 76h11q1 -50 -20 -84t-63 -34q-34 0 -91 37q-50 31 -69 31q-43 0 -54 -78z" />
    <glyph glyph-name="hungarumlaut" unicode="&#x2dd;" horiz-adv-x="333" 
d="M87 715h67l-93 -169h-11zM237 715h69l-92 -169h-10z" />
    <glyph glyph-name="endash" unicode="&#x2013;" 
d="M509 225h-518v25h518v-25z" />
    <glyph glyph-name="emdash" unicode="&#x2014;" horiz-adv-x="1000" 
d="M1009 225h-1018v26h1018v-26z" />
    <glyph glyph-name="quoteleft" unicode="&#x2018;" horiz-adv-x="339" 
d="M218 677v-15q-35 -15 -56.5 -44.5t-21.5 -62.5q0 -29 20 -29q4 0 14.5 3.5t16.5 3.5q16 0 26.5 -11.5t10.5 -27.5q0 -21 -13.5 -32.5t-35.5 -11.5q-27 0 -47 23t-20 57q0 48 28.5 89.5t77.5 57.5z" />
    <glyph glyph-name="quoteright" unicode="&#x2019;" horiz-adv-x="339" 
d="M123 449v15q35 15 56 44.5t21 62.5q0 29 -20 29q-4 0 -14 -3.5t-16 -3.5q-17 0 -27.5 11.5t-10.5 27.5q0 20 13.5 32t35.5 12q27 0 47 -23t20 -57q0 -47 -28.5 -89t-76.5 -58z" />
    <glyph glyph-name="quotesinglbase" unicode="&#x201a;" horiz-adv-x="339" 
d="M123 -145v15q35 15 56 44t21 62q0 30 -20 30q-4 0 -14 -3.5t-16 -3.5q-17 0 -27.5 11.5t-10.5 27.5q0 20 14 32t35 12q27 0 47 -23t20 -57q0 -48 -28.5 -90t-76.5 -57z" />
    <glyph glyph-name="quotedblleft" unicode="&#x201c;" horiz-adv-x="437" 
d="M153 677v-15q-35 -15 -56.5 -44.5t-21.5 -62.5q0 -29 20 -29q4 0 14.5 3.5t16.5 3.5q16 0 27 -12t11 -27q0 -20 -14 -32t-35 -12q-28 0 -48 23t-20 57q0 48 28.5 89.5t77.5 57.5zM381 677v-15q-35 -15 -56 -44.5t-21 -62.5q0 -29 20 -29q4 0 14 3.5t16 3.5q16 0 27 -12
t11 -27q0 -20 -14 -32t-35 -12q-27 0 -47 23t-20 57q0 47 28.5 89t76.5 58z" />
    <glyph glyph-name="quotedblright" unicode="&#x201d;" horiz-adv-x="437" 
d="M290 449v15q35 15 56 44.5t21 62.5q0 29 -20 29q-4 0 -14 -3.5t-16 -3.5q-17 0 -27.5 11.5t-10.5 27.5q0 20 13.5 32t35.5 12q27 0 47 -23t20 -57q0 -47 -28.5 -89t-76.5 -58zM54 449v15q35 15 56.5 44.5t21.5 62.5q0 29 -20 29q-4 0 -14.5 -3.5t-16.5 -3.5
q-16 0 -26.5 11.5t-10.5 27.5q0 20 13.5 32t35.5 12q27 0 47 -23t20 -57q0 -48 -28.5 -89.5t-77.5 -57.5z" />
    <glyph glyph-name="quotedblbase" unicode="&#x201e;" horiz-adv-x="437" 
d="M290 -145v15q35 15 56 44t21 62q0 30 -20 30q-4 0 -14 -3.5t-16 -3.5q-17 0 -27.5 11.5t-10.5 27.5q0 20 14 32t35 12q27 0 47 -23t20 -57q0 -48 -28.5 -90t-76.5 -57zM54 -145v15q35 15 56.5 44.5t21.5 61.5q0 30 -20 30q-4 0 -14.5 -3.5t-16.5 -3.5q-16 0 -26.5 11.5
t-10.5 27.5q0 20 14 32t35 12q27 0 47 -23t20 -57q0 -48 -28.5 -90t-77.5 -57z" />
    <glyph glyph-name="dagger" unicode="&#x2020;" 
d="M257 -197h-14q0 133 -1 191t-10 158.5t-29 178.5q22 15 29.5 40.5t9.5 74.5q-24 0 -72.5 -16t-73.5 -16q-20 0 -33.5 10.5t-13.5 30.5t13.5 30t33.5 10q25 0 73.5 -16t72.5 -16q0 28 -17.5 85t-17.5 91q0 22 11 38.5t32 16.5t32 -16.5t11 -38.5q0 -35 -17.5 -91.5
t-17.5 -84.5q25 0 74 16t72 16q19 0 33 -11t14 -29t-14 -29.5t-33 -11.5q-22 0 -71.5 16t-74.5 16q2 -49 9 -73.5t30 -41.5q-20 -78 -29.5 -180.5t-10 -155t-0.5 -192.5z" />
    <glyph glyph-name="daggerdbl" unicode="&#x2021;" 
d="M258 493q25 0 64 17t62 17q21 0 34.5 -11.5t13.5 -28.5q0 -18 -13.5 -29.5t-34.5 -11.5q-22 0 -61.5 17.5t-64.5 17.5q1 -36 9.5 -52.5t29.5 -33.5q-5 -8 -9.5 -17.5t-8 -18.5t-6.5 -20t-5 -19.5t-4 -19t-3 -17.5t-2 -15.5t-1 -13t-0.5 -10l-0.5 -5.5v0l1 -7
q0 -6 0.5 -11.5t1.5 -15t2.5 -18.5t4 -20.5t5.5 -22t6.5 -21.5t8.5 -21t11 -19q-20 -13 -29.5 -31.5t-10.5 -54.5q24 0 61.5 16.5t62.5 16.5q22 0 35 -12t13 -27q0 -18 -13 -29.5t-35 -11.5q-25 0 -62.5 17.5t-61.5 17.5q0 -34 17.5 -77t17.5 -67q0 -25 -11 -41t-32 -16
t-32.5 16t-11.5 41q0 22 17.5 67t17.5 77q-25 0 -63.5 -17.5t-61.5 -17.5q-21 0 -34.5 12t-13.5 29q0 18 13 29t35 11t61 -17t64 -17q-1 36 -9 52.5t-29 33.5q34 52 39 156q0 62 -22 120q-8 21 -18 36q38 23 39 86q-24 0 -61 -16.5t-63 -16.5q-22 0 -35 11.5t-13 27.5
q0 17 13 28.5t35 11.5q26 0 63 -17t61 -17q0 33 -17.5 76t-17.5 68t11.5 41t32.5 16q43 0 43 -57q0 -23 -17.5 -68t-17.5 -76z" />
    <glyph glyph-name="bullet" unicode="&#x2022;" horiz-adv-x="350" 
d="M67 331q0 44 32 75.5t76 31.5t75.5 -31.5t31.5 -75.5t-31.5 -76t-75.5 -32t-76 32t-32 76z" />
    <glyph glyph-name="ellipsis" unicode="&#x2026;" horiz-adv-x="1000" 
d="M165 -15q-20 0 -33 13.5t-13 31.5q0 19 13.5 32.5t32.5 13.5t32 -14t13 -32t-13 -31.5t-32 -13.5zM502 -15q-19 0 -32.5 13.5t-13.5 31.5q0 19 13.5 32.5t32.5 13.5q18 0 31 -13.5t13 -31.5q0 -19 -12.5 -32.5t-31.5 -13.5zM835 -15q-19 0 -32.5 13.5t-13.5 32.5t14.5 32
t31.5 13q18 0 31 -13.5t13 -32.5q0 -18 -13.5 -31.5t-30.5 -13.5z" />
    <glyph glyph-name="perthousand" unicode="&#x2030;" horiz-adv-x="996" 
d="M168 676q57 0 93 -49.5t36 -129.5t-38.5 -129.5t-90.5 -49.5q-54 0 -91.5 50t-37.5 129q0 73 37.5 126t91.5 53zM169 659q-34 0 -55 -39.5t-21 -123.5q0 -161 74 -161q76 0 76 163q0 79 -20 120t-54 41zM502 344q57 0 93 -49.5t36 -129.5t-38.5 -129.5t-90.5 -49.5
q-53 0 -91 50.5t-38 128.5q0 74 37 126.5t92 52.5zM503 327q-34 0 -55 -39.5t-21 -123.5q0 -161 74 -161q76 0 76 163q0 79 -20 120t-54 41zM828 344q57 0 93 -49.5t36 -129.5t-38.5 -129.5t-90.5 -49.5q-54 0 -91.5 50t-37.5 129q0 73 37.5 126t91.5 53zM829 327
q-34 0 -55 -39.5t-21 -123.5q0 -161 74 -161q76 0 76 163q0 79 -20 120t-54 41zM590 677l-473 -692h-29l473 692h29z" />
    <glyph glyph-name="guilsinglleft" unicode="&#x2039;" horiz-adv-x="333" 
d="M269 -4h-14l-183 230l183 230h14l-129 -230z" />
    <glyph glyph-name="guilsinglright" unicode="&#x203a;" horiz-adv-x="333" 
d="M63 456h14l183 -230l-183 -230h-14l129 230z" />
    <glyph glyph-name="fraction" unicode="&#x2044;" horiz-adv-x="167" 
d="M328 677l-456 -702h-32l457 702h31z" />
    <glyph glyph-name="Euro" unicode="&#x20ac;" 
d="M424 391l-8 -25h-295l-1 -53h279l-8 -26h-271q2 -119 47 -193.5t123 -74.5q45 0 82 19.5t55 40t45 58.5l10 -8q-44 -70 -90.5 -105t-120.5 -35q-91 0 -152 88t-64 210h-64l10 26h53q0 25 2 53h-64l8 25h58q14 116 80 200.5t166 84.5q82 0 165 -43v-146h-14q-3 81 -43 125
t-108 44q-82 0 -129 -76.5t-52 -188.5h301z" />
    <glyph glyph-name="trademark" unicode="&#x2122;" horiz-adv-x="976" 
d="M28 662h346l10 -98h-12q-8 50 -31 63.5t-81 13.5h-31v-286q0 -47 10.5 -60.5t47.5 -14.5v-12h-171v12q37 1 47.5 13.5t10.5 61.5v286h-32q-58 0 -81 -13.5t-31 -63.5h-12zM542 662l148 -312l142 312h108v-13q-34 -1 -46 -17t-12 -58v-219q0 -48 10 -61t48 -14v-12h-171
v12q38 0 48 12.5t10 62.5v235h-2l-149 -322h-11l-158 335h-2v-250q0 -44 11 -58t47 -15v-12h-140v12q38 1 48 13.5t10 59.5v221q0 45 -9.5 60t-48.5 15v13h119z" />
    <glyph glyph-name="minus" unicode="&#x2212;" horiz-adv-x="564" 
d="M545 317h-525v29h525v-29z" />
    <glyph glyph-name="apple" unicode="&#xf8ff;" horiz-adv-x="760" 
d="M504 461v-249q0 -50 9.5 -63.5t41.5 -14.5v-10h-162v10q36 1 47.5 9t11.5 31v152h-43l-145 -202h-96v10q22 0 39 13.5t40 46.5l99 135q-47 7 -79 36.5t-32 73.5q0 47 39.5 77.5t107.5 30.5h168v-11q-26 0 -36 -14.5t-10 -60.5zM443 342h9v184q-21 6 -44 6
q-57 0 -86.5 -28t-29.5 -73q0 -49 36.5 -69t114.5 -20zM34 331q0 143 101.5 244.5t244.5 101.5q144 0 245 -101.5t101 -244.5q0 -144 -101.5 -245t-244.5 -101t-244.5 101.5t-101.5 244.5zM57 331q0 -140 95 -232.5t228 -92.5q136 0 229 94t93 231t-94.5 230.5t-227.5 93.5
t-228 -93t-95 -231z" />
    <glyph glyph-name="zero.onum" horiz-adv-x="530" 
d="M266 492q92 0 150 -72.5t58 -177.5q0 -106 -56.5 -181t-150.5 -75q-95 0 -153 72t-58 183q0 117 63 184t147 67zM268 451q-70 0 -114.5 -58t-44.5 -154q0 -99 46 -156t110 -57q69 0 112.5 58t43.5 160q0 92 -45 149.5t-108 57.5z" />
    <glyph glyph-name="one.onum" horiz-adv-x="376" 
d="M73 479h229v-13q-47 -1 -66.5 -18t-19.5 -69v-292q0 -48 18.5 -60.5t65.5 -13.5v-13h-228v13q47 1 65.5 15t18.5 60v308q0 42 -19 55.5t-64 14.5v13z" />
    <glyph glyph-name="two.onum" horiz-adv-x="490" 
d="M130 55h167q45 0 71 12.5t51 40.5h16l-38 -108h-351v17q170 148 197 173q79 80 79 137q0 52 -32 83t-81 31q-82 0 -128 -91l-12 4q4 13 9 25t19.5 34.5t32 38t47.5 28t65 12.5q68 0 104 -42t36 -97q0 -58 -58.5 -122t-193.5 -174v-2z" />
    <glyph glyph-name="three.onum" horiz-adv-x="458" 
d="M160 146v13q65 10 114 52t49 102q0 62 -32 97t-87 35q-82 0 -137 -99l-13 7q23 63 69.5 101.5t111.5 38.5q73 0 109 -43t36 -93q0 -48 -28 -91.5t-71 -71.5q134 -46 134 -161q0 -95 -64 -162.5t-192 -67.5q-100 0 -100 48q0 14 11 22.5t27 8.5q22 0 56 -23.5t64 -23.5
q55 0 100.5 42.5t45.5 105.5q0 68 -50 115.5t-153 47.5z" />
    <glyph glyph-name="four.onum" horiz-adv-x="497" 
d="M360 491v-437h98v-54h-98v-204h-60v204h-271v33l309 458h22zM301 54v322h-2l-214 -322h216z" />
    <glyph glyph-name="five.onum" horiz-adv-x="462" 
d="M418 479l-27 -60h-206l-61 -124q115 -14 196 -78t81 -166q0 -104 -76 -176t-180 -72q-47 0 -76 16.5t-29 42.5q0 14 9.5 23t24.5 9q21 0 56.5 -24t69.5 -24q62 0 108 45t46 112q0 98 -79 161.5t-214 67.5l122 247h235z" />
    <glyph glyph-name="six.onum" horiz-adv-x="520" 
d="M458 676v-14q-112 -4 -196 -91t-112 -210q76 57 150 57q73 0 116 -57.5t43 -141.5q0 -91 -54 -162t-142 -71q-64 0 -109.5 43.5t-64.5 104t-19 127.5q0 106 47.5 201t133 154.5t186.5 59.5h21zM395 173q0 98 -37 152.5t-101 54.5q-41 0 -111 -45q-7 -48 -7 -102
q0 -91 36.5 -157.5t94.5 -66.5q57 0 91 49.5t34 114.5z" />
    <glyph glyph-name="seven.onum" horiz-adv-x="508" 
d="M109 479h355v-16l-220 -660l-33 8l203 608h-214q-48 0 -78 -18.5t-57 -65.5l-13 4z" />
    <glyph glyph-name="eight.onum" 
d="M208 340l-25 21t-26 22.5l-22.5 21t-22 25l-15 25.5t-12 31t-3.5 34q0 71 48.5 113.5t117.5 42.5q82 0 127.5 -43.5t45.5 -100.5q0 -28 -12.5 -53.5t-37.5 -48t-44 -36.5t-48 -32q85 -68 110 -97q45 -52 45 -108q0 -78 -51.5 -124.5t-131.5 -46.5q-90 0 -135.5 47
t-45.5 115q0 92 138 192zM263 374q30 26 40.5 36t30.5 33.5t27.5 46t7.5 49.5q0 52 -33 83.5t-87 31.5q-50 0 -84 -29.5t-34 -71.5q0 -28 16 -57t29.5 -43.5t47 -44zM223 327q-39 -30 -67.5 -79t-28.5 -94q0 -65 34 -105.5t98 -40.5q54 0 89.5 30.5t35.5 77.5q0 45 -34 89
t-127 122z" />
    <glyph glyph-name="nine.onum" horiz-adv-x="520" 
d="M63 -182v14q111 0 192.5 87.5t110.5 205.5q-76 -49 -144 -49q-73 0 -116.5 57t-43.5 138q0 93 52.5 165t141.5 72q91 0 143 -82.5t52 -194.5q0 -71 -26 -143.5t-72 -133t-118 -98.5t-156 -38h-16zM373 155q9 59 9 103q0 85 -37 155.5t-97 70.5t-91 -52.5t-31 -112.5
q0 -100 34.5 -153t96.5 -53q26 0 60 12.5t56 29.5z" />
    <glyph glyph-name="zero.tnum" 
d="M249 676q89 0 145 -94t56 -250q0 -160 -57.5 -253t-142.5 -93q-87 0 -144 89.5t-57 248.5q0 162 57 257t143 95zM250 657q-134 0 -134 -356q0 -146 37.5 -221t95.5 -75q134 0 134 359q0 141 -37 217t-96 76z" />
    <glyph glyph-name="one.tnum" 
d="M123 600l153 76h9v-578q0 -59 12.5 -71t70.5 -14v-13h-230v13q56 2 70.5 16.5t14.5 69.5v423q0 47 -9.5 64t-31.5 17q-24 0 -54 -14z" />
    <glyph glyph-name="two.tnum" 
d="M442 114l-40 -114h-375v18q200 196 264 281t64 161q0 72 -38.5 116.5t-102.5 44.5q-56 0 -99.5 -37.5t-58.5 -94.5h-15q13 82 61.5 134.5t126.5 52.5q74 0 123.5 -48.5t49.5 -125.5q0 -128 -135 -272l-159 -169h210q86 0 113 53h11z" />
    <glyph glyph-name="three.tnum" 
d="M164 329v13q65 10 114 52t49 102q0 62 -32 97t-87 35q-82 0 -137 -99l-13 7q23 63 69.5 101.5t111.5 38.5q73 0 109 -43t36 -93q0 -48 -28 -91.5t-71 -71.5q134 -46 134 -161q0 -95 -64 -162.5t-192 -67.5q-100 0 -100 48q0 14 11 22.5t27 8.5q22 0 56 -23.5t64 -23.5
q55 0 100.5 42.5t45.5 105.5q0 68 -50 115.5t-153 47.5z" />
    <glyph glyph-name="four.tnum" 
d="M465 236v-54h-97v-182h-63v182h-290v47l308 448h45v-441h97zM305 236v362h-2l-246 -362h248z" />
    <glyph glyph-name="five.tnum" 
d="M432 662l-27 -60h-206l-61 -124q115 -14 196 -78t81 -166q0 -104 -76 -176t-180 -72q-47 0 -76 16.5t-29 42.5q0 14 9.5 23t24.5 9q21 0 56.5 -24t69.5 -24q62 0 108 45t46 112q0 98 -79 161.5t-214 67.5l122 247h235z" />
    <glyph glyph-name="six.tnum" 
d="M448 676v-14q-112 -4 -196 -91t-112 -210q76 57 150 57q73 0 116 -57.5t43 -141.5q0 -91 -54 -162t-142 -71q-64 0 -109.5 43.5t-64.5 104t-19 127.5q0 106 47.5 201t133 154.5t186.5 59.5h21zM385 173q0 98 -37 152.5t-101 54.5q-41 0 -111 -45q-7 -48 -7 -102
q0 -91 36.5 -157.5t94.5 -66.5q57 0 91 49.5t34 114.5z" />
    <glyph glyph-name="seven.tnum" 
d="M100 662h355v-17l-220 -660h-32l203 617h-215q-50 0 -78.5 -18t-55.5 -65l-13 4z" />
    <glyph glyph-name="eight.tnum" 
d="M207 340l-25 21t-26 22.5l-22.5 21t-22 25l-15 25.5t-12 31t-3.5 34q0 71 48.5 113.5t117.5 42.5q82 0 127.5 -43.5t45.5 -100.5q0 -28 -12.5 -53.5t-37.5 -48t-44 -36.5t-48 -32q85 -68 110 -97q45 -52 45 -108q0 -78 -51.5 -124.5t-131.5 -46.5q-90 0 -135.5 47
t-45.5 115q0 92 138 192zM262 374q30 26 40.5 36t30.5 33.5t27.5 46t7.5 49.5q0 52 -33 83.5t-87 31.5q-50 0 -84 -29.5t-34 -71.5q0 -28 16 -57t29.5 -43.5t47 -44zM222 327q-39 -30 -67.5 -79t-28.5 -94q0 -65 34 -105.5t98 -40.5q54 0 89.5 30.5t35.5 77.5q0 45 -34 89
t-127 122z" />
    <glyph glyph-name="nine.tnum" 
d="M53 -14v14q111 0 192.5 87.5t110.5 205.5q-76 -49 -144 -49q-73 0 -116.5 57t-43.5 138q0 93 52.5 165t141.5 72q91 0 143 -82.5t52 -194.5q0 -71 -26 -143.5t-72 -133t-118 -98.5t-156 -38h-16zM363 323q9 59 9 103q0 85 -37 155.5t-97 70.5t-91 -52.5t-31 -112.5
q0 -100 34.5 -153t96.5 -53q26 0 60 12.5t56 29.5z" />
    </font>
</defs>
</svg>
